G04*
G04 #@! TF.GenerationSoftware,Altium Limited,Altium Designer,18.1.7 (191)*
G04*
G04 Layer_Color=255*
%FSLAX25Y25*%
%MOIN*%
G70*
G01*
G75*
%ADD33C,0.14173*%
%ADD34C,0.05906*%
%ADD35R,0.05906X0.05906*%
%ADD36C,0.05512*%
%ADD37C,0.03937*%
%ADD38C,0.06299*%
%ADD39C,0.08268*%
%ADD40C,0.05118*%
%ADD41O,0.04331X0.07874*%
%ADD42O,0.04331X0.07874*%
%ADD43C,0.14961*%
D33*
X32500Y185000D02*
D03*
X56122D02*
D03*
D34*
X36500Y60000D02*
D03*
Y50000D02*
D03*
Y40000D02*
D03*
Y30000D02*
D03*
Y90000D02*
D03*
Y80000D02*
D03*
Y70000D02*
D03*
D35*
Y100000D02*
D03*
D36*
X345500Y71000D02*
D03*
Y101000D02*
D03*
X243516Y61000D02*
D03*
Y71000D02*
D03*
Y81000D02*
D03*
Y91000D02*
D03*
Y101000D02*
D03*
Y111000D02*
D03*
Y121000D02*
D03*
Y131000D02*
D03*
X209500Y61000D02*
D03*
Y71000D02*
D03*
Y81000D02*
D03*
Y91000D02*
D03*
Y101000D02*
D03*
Y111000D02*
D03*
Y121000D02*
D03*
Y131000D02*
D03*
X313516Y41000D02*
D03*
Y51000D02*
D03*
Y61000D02*
D03*
Y71000D02*
D03*
Y81000D02*
D03*
Y91000D02*
D03*
Y101000D02*
D03*
Y111000D02*
D03*
Y121000D02*
D03*
Y131000D02*
D03*
Y141000D02*
D03*
Y151000D02*
D03*
X279500Y41000D02*
D03*
Y51000D02*
D03*
Y61000D02*
D03*
Y71000D02*
D03*
Y81000D02*
D03*
Y91000D02*
D03*
Y101000D02*
D03*
Y111000D02*
D03*
Y121000D02*
D03*
Y131000D02*
D03*
Y141000D02*
D03*
Y151000D02*
D03*
X169500Y181000D02*
D03*
Y171000D02*
D03*
Y161000D02*
D03*
Y41000D02*
D03*
Y51000D02*
D03*
Y61000D02*
D03*
Y71000D02*
D03*
Y81000D02*
D03*
Y91000D02*
D03*
Y101000D02*
D03*
Y111000D02*
D03*
Y121000D02*
D03*
Y131000D02*
D03*
Y141000D02*
D03*
Y151000D02*
D03*
X109500D02*
D03*
Y141000D02*
D03*
Y131000D02*
D03*
Y121000D02*
D03*
Y111000D02*
D03*
Y101000D02*
D03*
Y91000D02*
D03*
Y81000D02*
D03*
Y71000D02*
D03*
Y61000D02*
D03*
Y51000D02*
D03*
Y41000D02*
D03*
Y161000D02*
D03*
Y171000D02*
D03*
Y181000D02*
D03*
X9500Y116000D02*
D03*
X28493Y116001D02*
D03*
X73201Y116000D02*
D03*
X43201D02*
D03*
X561524Y77500D02*
D03*
X582390D02*
D03*
X506405Y23622D02*
D03*
X527272D02*
D03*
X540500Y283000D02*
D03*
X510500D02*
D03*
X506405Y133000D02*
D03*
X527272D02*
D03*
X451287Y78740D02*
D03*
X472154D02*
D03*
X382634Y30000D02*
D03*
X403500D02*
D03*
X382384Y100250D02*
D03*
X403250D02*
D03*
X460500Y174806D02*
D03*
Y144807D02*
D03*
X580500Y200000D02*
D03*
X550500D02*
D03*
X479501Y207500D02*
D03*
X449501D02*
D03*
X437209Y174806D02*
D03*
X437208Y193800D02*
D03*
D37*
X339500Y223000D02*
D03*
X329500D02*
D03*
X319500D02*
D03*
X289500D02*
D03*
X299500D02*
D03*
X309500D02*
D03*
X319500Y283000D02*
D03*
X329500D02*
D03*
X339500D02*
D03*
X309500D02*
D03*
X299500D02*
D03*
X289500D02*
D03*
X79500D02*
D03*
X89500D02*
D03*
X99500D02*
D03*
X129500D02*
D03*
X119500D02*
D03*
X109500D02*
D03*
X99500Y223000D02*
D03*
X89500D02*
D03*
X79500D02*
D03*
X109500D02*
D03*
X119500D02*
D03*
X129500D02*
D03*
D38*
X407567Y185000D02*
D03*
X393000D02*
D03*
X378433D02*
D03*
X56500Y145000D02*
D03*
X46500D02*
D03*
X36500D02*
D03*
D39*
X560500Y257685D02*
D03*
Y247685D02*
D03*
Y237685D02*
D03*
D40*
X481783Y247843D02*
D03*
X517216D02*
D03*
X499500Y238000D02*
D03*
Y257685D02*
D03*
D41*
X505905Y207500D02*
D03*
X516905D02*
D03*
D42*
X511406D02*
D03*
D43*
X584284Y20000D02*
D03*
Y283000D02*
D03*
X15500Y145000D02*
D03*
Y15000D02*
D03*
X350500Y150000D02*
D03*
M02*
