G04*
G04 #@! TF.GenerationSoftware,Altium Limited,Altium Designer,18.1.7 (191)*
G04*
G04 Layer_Color=32896*
%FSLAX25Y25*%
%MOIN*%
G70*
G01*
G75*
%ADD12C,0.01000*%
%ADD14C,0.05000*%
%ADD15C,0.01500*%
%ADD32C,0.02500*%
%ADD44C,0.02000*%
%ADD45C,0.03500*%
%ADD46C,0.00400*%
D12*
X561500Y3500D02*
Y12497D01*
X555502Y3500D01*
Y12497D01*
X551003Y9498D02*
X548004D01*
X546505Y7999D01*
Y3500D01*
X551003D01*
X552503Y5000D01*
X551003Y6499D01*
X546505D01*
X543506Y3500D02*
Y9498D01*
X539007D01*
X537508Y7999D01*
Y3500D01*
X533009D02*
X530010D01*
X528511Y5000D01*
Y7999D01*
X530010Y9498D01*
X533009D01*
X534509Y7999D01*
Y5000D01*
X533009Y3500D01*
X516514Y12497D02*
Y5000D01*
X515015Y3500D01*
X512016D01*
X510517Y5000D01*
Y12497D01*
X507517Y3500D02*
X503019D01*
X501519Y5000D01*
X503019Y6499D01*
X506018D01*
X507517Y7999D01*
X506018Y9498D01*
X501519D01*
X494022Y3500D02*
X497021D01*
X498520Y5000D01*
Y7999D01*
X497021Y9498D01*
X494022D01*
X492522Y7999D01*
Y6499D01*
X498520D01*
X489523Y9498D02*
Y3500D01*
Y6499D01*
X488024Y7999D01*
X486524Y9498D01*
X485025D01*
X471529Y12497D02*
X468530D01*
X470030D01*
Y3500D01*
X471529D01*
X468530D01*
X464032D02*
Y9498D01*
X459533D01*
X458034Y7999D01*
Y3500D01*
X453535Y10998D02*
Y9498D01*
X455034D01*
X452035D01*
X453535D01*
Y5000D01*
X452035Y3500D01*
X443038D02*
X446037D01*
X447537Y5000D01*
Y7999D01*
X446037Y9498D01*
X443038D01*
X441539Y7999D01*
Y6499D01*
X447537D01*
X438540Y9498D02*
Y3500D01*
Y6499D01*
X437040Y7999D01*
X435541Y9498D01*
X434041D01*
X428043Y3500D02*
Y10998D01*
Y7999D01*
X429543D01*
X426544D01*
X428043D01*
Y10998D01*
X426544Y12497D01*
X420546Y9498D02*
X417547D01*
X416047Y7999D01*
Y3500D01*
X420546D01*
X422045Y5000D01*
X420546Y6499D01*
X416047D01*
X407050Y9498D02*
X411549D01*
X413048Y7999D01*
Y5000D01*
X411549Y3500D01*
X407050D01*
X399552D02*
X402551D01*
X404051Y5000D01*
Y7999D01*
X402551Y9498D01*
X399552D01*
X398053Y7999D01*
Y6499D01*
X404051D01*
X386057Y12497D02*
Y3500D01*
X381558D01*
X380059Y5000D01*
Y6499D01*
X381558Y7999D01*
X386057D01*
X381558D01*
X380059Y9498D01*
Y10998D01*
X381558Y12497D01*
X386057D01*
X375560Y3500D02*
X372561D01*
X371062Y5000D01*
Y7999D01*
X372561Y9498D01*
X375560D01*
X377060Y7999D01*
Y5000D01*
X375560Y3500D01*
X366563Y9498D02*
X363564D01*
X362065Y7999D01*
Y3500D01*
X366563D01*
X368063Y5000D01*
X366563Y6499D01*
X362065D01*
X359066Y9498D02*
Y3500D01*
Y6499D01*
X357566Y7999D01*
X356066Y9498D01*
X354567D01*
X344070Y12497D02*
Y3500D01*
X348569D01*
X350068Y5000D01*
Y7999D01*
X348569Y9498D01*
X344070D01*
X332074Y12497D02*
Y6499D01*
X329075Y3500D01*
X326076Y6499D01*
Y12497D01*
X317079Y3500D02*
X323077D01*
X317079Y9498D01*
Y10998D01*
X318579Y12497D01*
X321578D01*
X323077Y10998D01*
X273500Y10498D02*
X272001Y11997D01*
X269002D01*
X267502Y10498D01*
Y4499D01*
X269002Y3000D01*
X272001D01*
X273500Y4499D01*
Y10498D01*
X258505Y11997D02*
X261504Y10498D01*
X264503Y7499D01*
Y4499D01*
X263003Y3000D01*
X260004D01*
X258505Y4499D01*
Y5999D01*
X260004Y7499D01*
X264503D01*
X255506Y3000D02*
X249508Y8998D01*
X240511Y3000D02*
X246509D01*
X240511Y8998D01*
Y10498D01*
X242010Y11997D01*
X245009D01*
X246509Y10498D01*
X237512Y4499D02*
X236012Y3000D01*
X233013D01*
X231514Y4499D01*
Y10498D01*
X233013Y11997D01*
X236012D01*
X237512Y10498D01*
Y8998D01*
X236012Y7499D01*
X231514D01*
X228515Y3000D02*
X222516Y8998D01*
X213519Y3000D02*
X219517D01*
X213519Y8998D01*
Y10498D01*
X215019Y11997D01*
X218018D01*
X219517Y10498D01*
X210520D02*
X209021Y11997D01*
X206022D01*
X204522Y10498D01*
Y4499D01*
X206022Y3000D01*
X209021D01*
X210520Y4499D01*
Y10498D01*
X201523Y3000D02*
X198524D01*
X200024D01*
Y11997D01*
X201523Y10498D01*
X194026D02*
X192526Y11997D01*
X189527D01*
X188028Y10498D01*
Y8998D01*
X189527Y7499D01*
X188028Y5999D01*
Y4499D01*
X189527Y3000D01*
X192526D01*
X194026Y4499D01*
Y5999D01*
X192526Y7499D01*
X194026Y8998D01*
Y10498D01*
X192526Y7499D02*
X189527D01*
X139502Y13997D02*
X142501D01*
X141001D01*
Y6499D01*
X142501Y5000D01*
X144000D01*
X145500Y6499D01*
X135003Y10998D02*
X132004D01*
X130505Y9499D01*
Y5000D01*
X135003D01*
X136503Y6499D01*
X135003Y7999D01*
X130505D01*
X127506Y5000D02*
Y13997D01*
Y7999D02*
X123007Y10998D01*
X127506Y7999D02*
X123007Y5000D01*
X117009D02*
X114010D01*
X112511Y6499D01*
Y9499D01*
X114010Y10998D01*
X117009D01*
X118509Y9499D01*
Y6499D01*
X117009Y5000D01*
X109512Y13997D02*
Y5000D01*
X105013D01*
X103514Y6499D01*
Y7999D01*
Y9499D01*
X105013Y10998D01*
X109512D01*
X91518Y13997D02*
Y5000D01*
Y7999D01*
X85519Y13997D01*
X90018Y9499D01*
X85519Y5000D01*
X82520Y10998D02*
Y6499D01*
X81021Y5000D01*
X76522D01*
Y10998D01*
X73523Y5000D02*
Y10998D01*
X69025D01*
X67525Y9499D01*
Y5000D01*
X64526Y10998D02*
X58528D01*
X64526Y5000D01*
X58528D01*
X55529D02*
X52530D01*
X54030D01*
Y13997D01*
X55529D01*
X43533Y5000D02*
X46532D01*
X48031Y6499D01*
Y9499D01*
X46532Y10998D01*
X43533D01*
X42033Y9499D01*
Y7999D01*
X48031D01*
X39034Y10998D02*
Y5000D01*
Y7999D01*
X37535Y9499D01*
X36035Y10998D01*
X34536D01*
D14*
X29000Y240000D02*
X35717Y246718D01*
X29000Y240000D02*
X35717Y233282D01*
X28000Y225000D02*
X36500D01*
X28000Y212500D02*
Y225000D01*
X19500D02*
X28000D01*
X19500Y212500D02*
X36500D01*
Y225000D01*
X19500Y212500D02*
Y225000D01*
Y240000D02*
X29000D01*
X19500Y255000D02*
X35500D01*
X19500D02*
Y267500D01*
X35500D01*
X17933Y287740D02*
X28067Y277260D01*
D15*
X28000Y291500D02*
Y296500D01*
X31755Y291085D02*
X37000Y297000D01*
X32000Y287500D02*
X37000D01*
D32*
X10500Y282500D02*
X23000D01*
D44*
X29585Y289306D01*
D45*
X10500Y280000D02*
Y285000D01*
D46*
X9500Y210000D02*
X12499D01*
Y211500D01*
X11999Y211999D01*
X11000D01*
X10500Y211500D01*
Y210000D01*
X12499Y212999D02*
X9500D01*
X11000D01*
X11499Y213499D01*
Y214498D01*
X11000Y214998D01*
X9500D01*
X11499Y216498D02*
Y217498D01*
X11000Y217997D01*
X9500D01*
Y216498D01*
X10000Y215998D01*
X10500Y216498D01*
Y217997D01*
X9500Y218997D02*
Y220497D01*
X10000Y220996D01*
X10500Y220497D01*
Y219497D01*
X11000Y218997D01*
X11499Y219497D01*
Y220996D01*
X9500Y223496D02*
Y222496D01*
X10000Y221996D01*
X11000D01*
X11499Y222496D01*
Y223496D01*
X11000Y223995D01*
X10500D01*
Y221996D01*
X12499Y226994D02*
X9500D01*
Y225495D01*
X10000Y224995D01*
X11000D01*
X11499Y225495D01*
Y226994D01*
X9500Y230993D02*
X11499D01*
X12499Y231993D01*
X11499Y232993D01*
X9500D01*
X11000D01*
Y230993D01*
X11499Y233992D02*
X9500D01*
X10500D01*
X11000Y234492D01*
X11499Y234992D01*
Y235492D01*
Y236991D02*
X9500D01*
X10500D01*
X11000Y237491D01*
X11499Y237991D01*
Y238491D01*
Y240490D02*
Y241490D01*
X11000Y241990D01*
X9500D01*
Y240490D01*
X10000Y239990D01*
X10500Y240490D01*
Y241990D01*
X11499Y242989D02*
X10000D01*
X9500Y243489D01*
Y244989D01*
X9000D01*
X8500Y244489D01*
Y243989D01*
X9500Y244989D02*
X11499D01*
X9500Y248987D02*
X12499D01*
Y250487D01*
X11999Y250987D01*
X11000D01*
X10500Y250487D01*
Y248987D01*
Y249987D02*
X9500Y250987D01*
Y253486D02*
Y252486D01*
X10000Y251986D01*
X11000D01*
X11499Y252486D01*
Y253486D01*
X11000Y253986D01*
X10500D01*
Y251986D01*
X9500Y254985D02*
Y256485D01*
X10000Y256985D01*
X10500Y256485D01*
Y255485D01*
X11000Y254985D01*
X11499Y255485D01*
Y256985D01*
X9500Y259484D02*
Y258484D01*
X10000Y257984D01*
X11000D01*
X11499Y258484D01*
Y259484D01*
X11000Y259984D01*
X10500D01*
Y257984D01*
X11499Y261483D02*
Y262483D01*
X11000Y262983D01*
X9500D01*
Y261483D01*
X10000Y260983D01*
X10500Y261483D01*
Y262983D01*
X11499Y263983D02*
X9500D01*
X10500D01*
X11000Y264482D01*
X11499Y264982D01*
Y265482D01*
Y268981D02*
Y267481D01*
X11000Y266982D01*
X10000D01*
X9500Y267481D01*
Y268981D01*
X12499Y269981D02*
X9500D01*
X11000D01*
X11499Y270480D01*
Y271480D01*
X11000Y271980D01*
X9500D01*
M02*
