M48
;Layer_Color=9474304
;FILE_FORMAT=2:5
INCH,LZ
;TYPE=PLATED
T1F00S00C0.02362
T2F00S00C0.02756
T3F00S00C0.03346
T4F00S00C0.03543
T5F00S00C0.03937
T6F00S00C0.04724
T7F00S00C0.06693
T8F00S00C0.12205
T9F00S00C0.13386
%
T01
X00795Y0223
X00895
X00995
X01095
X01195
X01295
X02895
X02995
X03095
X03195
X03295
X03395
Y0283
X03295
X03195
X03095
X02995
X02895
X01295
X01195
X01095
X00995
X00895
X00795
T02
X0505905Y02075
X0511406
X0516905
T03
X03455Y0071
Y0101
X0043201Y0116
X0028493Y0116001
X00095Y0116
X0073201
X04605Y0144807
Y0174806
X0437209
X0437208Y01938
X0449501Y02075
X0479501
X05505Y02
X05805
X05405Y0283
X05105
T04
X00365Y003
Y004
Y005
Y006
Y007
Y008
Y009
Y01
X0481783Y0247843
X04995Y0238
Y0257685
X0517216Y0247843
T05
X0527272Y0023622
X0561524Y00775
X058239
X0472154Y007874
X0451287
X040325Y010025
X0382384
X0382634Y003
X04035
X0506405Y0023622
X0313516Y0041
Y0051
Y0061
Y0071
Y0081
Y0091
Y0101
Y0111
X02795
Y0101
Y0091
Y0081
Y0071
Y0061
Y0051
Y0041
X0243516Y0061
Y0071
Y0081
Y0091
Y0101
Y0111
X02095
Y0101
Y0091
Y0081
Y0071
Y0061
X01695
Y0051
Y0041
Y0071
Y0081
Y0091
Y0101
Y0111
X01095
Y0101
Y0091
Y0081
Y0071
Y0061
Y0051
Y0041
Y0121
Y0131
Y0141
Y0151
Y0161
Y0171
Y0181
X01695
Y0171
Y0161
Y0151
Y0141
Y0131
Y0121
X02095
Y0131
X0243516
Y0121
X02795
Y0131
Y0141
Y0151
X0313516
Y0141
Y0131
Y0121
X0506405Y0133
X0527272
T06
X00365Y0145
X00465
X00565
X0378433Y0185
X0393
X0407567
T07
X05605Y0237685
Y0247685
Y0257685
T08
X00325Y0185
X0056122
T09
X0584284Y002
X00155Y0015
Y0145
X03505Y015
X0584284Y0283
M30
