G04*
G04 #@! TF.GenerationSoftware,Altium Limited,Altium Designer,18.1.7 (191)*
G04*
G04 Layer_Physical_Order=1*
G04 Layer_Color=255*
%FSLAX25Y25*%
%MOIN*%
G70*
G01*
G75*
%ADD14C,0.05000*%
%ADD16C,0.01200*%
%ADD17R,0.01575X0.05512*%
%ADD18R,0.01181X0.01968*%
%ADD32C,0.02500*%
%ADD33C,0.14173*%
%ADD34C,0.05906*%
%ADD35R,0.05906X0.05906*%
%ADD36C,0.05512*%
%ADD37C,0.03937*%
%ADD38C,0.06299*%
%ADD39C,0.08268*%
%ADD40C,0.05118*%
%ADD41O,0.04331X0.07874*%
%ADD42O,0.04331X0.07874*%
%ADD43C,0.14961*%
G36*
X338843Y286562D02*
X338795Y286420D01*
X338629Y286069D01*
X337902Y285768D01*
X337240Y285260D01*
X336732Y284598D01*
X336413Y283827D01*
X336304Y283000D01*
X336374Y282470D01*
X334840Y280935D01*
X332475D01*
X332254Y281384D01*
X332268Y281402D01*
X332587Y282173D01*
X332696Y283000D01*
X332587Y283827D01*
X332268Y284598D01*
X331760Y285260D01*
X331098Y285768D01*
X330327Y286087D01*
X329500Y286196D01*
X328673Y286087D01*
X327902Y285768D01*
X327240Y285260D01*
X326732Y284598D01*
X326413Y283827D01*
X326304Y283000D01*
X326413Y282173D01*
X326732Y281402D01*
X326746Y281384D01*
X326525Y280935D01*
X322475D01*
X322254Y281384D01*
X322268Y281402D01*
X322587Y282173D01*
X322696Y283000D01*
X322587Y283827D01*
X322268Y284598D01*
X321760Y285260D01*
X321098Y285768D01*
X320327Y286087D01*
X319500Y286196D01*
X318969Y286126D01*
X317993Y287103D01*
X318184Y287565D01*
X337840D01*
X338843Y286562D01*
D02*
G37*
G36*
X350765Y274640D02*
Y231452D01*
X343049Y223736D01*
X342542Y223936D01*
X342268Y224598D01*
X341760Y225260D01*
X341098Y225768D01*
X340327Y226087D01*
X339500Y226196D01*
X338673Y226087D01*
X337902Y225768D01*
X337240Y225260D01*
X336732Y224598D01*
X336413Y223827D01*
X336304Y223000D01*
X336413Y222173D01*
X336677Y221535D01*
X336446Y221035D01*
X334060D01*
X332626Y222469D01*
X332696Y223000D01*
X332587Y223827D01*
X332268Y224598D01*
X331760Y225260D01*
X331098Y225768D01*
X330327Y226087D01*
X329500Y226196D01*
X328673Y226087D01*
X327902Y225768D01*
X327240Y225260D01*
X326732Y224598D01*
X326413Y223827D01*
X326304Y223000D01*
X326413Y222173D01*
X326732Y221402D01*
X327240Y220740D01*
X327902Y220232D01*
X328673Y219913D01*
X329500Y219804D01*
X330030Y219874D01*
X332002Y217902D01*
X332598Y217504D01*
X333300Y217365D01*
X339418D01*
X339609Y216903D01*
X336671Y213964D01*
X331131D01*
X322626Y222469D01*
X322696Y223000D01*
X322587Y223827D01*
X322268Y224598D01*
X321760Y225260D01*
X321098Y225768D01*
X320327Y226087D01*
X319500Y226196D01*
X318673Y226087D01*
X317902Y225768D01*
X317240Y225260D01*
X316732Y224598D01*
X316413Y223827D01*
X316304Y223000D01*
X316413Y222173D01*
X316732Y221402D01*
X317240Y220740D01*
X317902Y220232D01*
X318673Y219913D01*
X319500Y219804D01*
X320030Y219874D01*
X329073Y210831D01*
X329669Y210433D01*
X330371Y210294D01*
X336245D01*
X336436Y209832D01*
X333498Y206893D01*
X328202D01*
X312626Y222469D01*
X312696Y223000D01*
X312587Y223827D01*
X312268Y224598D01*
X311760Y225260D01*
X311098Y225768D01*
X310327Y226087D01*
X309500Y226196D01*
X308673Y226087D01*
X307902Y225768D01*
X307240Y225260D01*
X306732Y224598D01*
X306413Y223827D01*
X306304Y223000D01*
X306413Y222173D01*
X306732Y221402D01*
X307240Y220740D01*
X307902Y220232D01*
X308673Y219913D01*
X309500Y219804D01*
X310031Y219874D01*
X326144Y203760D01*
X326740Y203362D01*
X327442Y203223D01*
X332874D01*
X333065Y202761D01*
X330127Y199822D01*
X325273D01*
X302626Y222469D01*
X302696Y223000D01*
X302587Y223827D01*
X302268Y224598D01*
X301760Y225260D01*
X301098Y225768D01*
X300327Y226087D01*
X299500Y226196D01*
X298673Y226087D01*
X297902Y225768D01*
X297240Y225260D01*
X296732Y224598D01*
X296413Y223827D01*
X296304Y223000D01*
X296413Y222173D01*
X296732Y221402D01*
X297240Y220740D01*
X297902Y220232D01*
X298673Y219913D01*
X299500Y219804D01*
X300030Y219874D01*
X322026Y197878D01*
X321835Y197416D01*
X317679D01*
X306798Y208298D01*
X292626Y222469D01*
X292696Y223000D01*
X292587Y223827D01*
X292268Y224598D01*
X291760Y225260D01*
X291098Y225768D01*
X290327Y226087D01*
X289500Y226196D01*
X288673Y226087D01*
X287902Y225768D01*
X287240Y225260D01*
X286732Y224598D01*
X286413Y223827D01*
X286304Y223000D01*
X286413Y222173D01*
X286732Y221402D01*
X287240Y220740D01*
X287902Y220232D01*
X288673Y219913D01*
X289500Y219804D01*
X290031Y219874D01*
X303665Y206240D01*
Y187584D01*
X303203Y187393D01*
X274835Y215760D01*
Y239240D01*
X312860Y277265D01*
X335600D01*
X336302Y277404D01*
X336898Y277802D01*
X338969Y279874D01*
X339500Y279804D01*
X340327Y279913D01*
X341098Y280232D01*
X341760Y280740D01*
X342268Y281402D01*
X342569Y282129D01*
X342920Y282295D01*
X343062Y282343D01*
X350765Y274640D01*
D02*
G37*
G36*
X306746Y284616D02*
X306732Y284598D01*
X306413Y283827D01*
X306304Y283000D01*
X306374Y282470D01*
X270297Y246393D01*
X269835Y246584D01*
Y250740D01*
X298970Y279874D01*
X299500Y279804D01*
X300327Y279913D01*
X301098Y280232D01*
X301760Y280740D01*
X302268Y281402D01*
X302587Y282173D01*
X302696Y283000D01*
X302587Y283827D01*
X302268Y284598D01*
X302254Y284616D01*
X302475Y285065D01*
X306525D01*
X306746Y284616D01*
D02*
G37*
G36*
X296746D02*
X296732Y284598D01*
X296413Y283827D01*
X296304Y283000D01*
X296374Y282470D01*
X267797Y253893D01*
X267335Y254084D01*
Y269240D01*
X283160Y285065D01*
X286525D01*
X286746Y284616D01*
X286732Y284598D01*
X286413Y283827D01*
X286304Y283000D01*
X286413Y282173D01*
X286732Y281402D01*
X287240Y280740D01*
X287902Y280232D01*
X288673Y279913D01*
X289500Y279804D01*
X290327Y279913D01*
X291098Y280232D01*
X291760Y280740D01*
X292268Y281402D01*
X292587Y282173D01*
X292696Y283000D01*
X292587Y283827D01*
X292268Y284598D01*
X292254Y284616D01*
X292475Y285065D01*
X296525D01*
X296746Y284616D01*
D02*
G37*
G36*
X309500Y279804D02*
X309545Y279810D01*
X309766Y279362D01*
X272797Y242393D01*
X272335Y242584D01*
Y243240D01*
X308969Y279874D01*
X309500Y279804D01*
D02*
G37*
G36*
X598971Y1529D02*
X1529D01*
X1529Y300000D01*
X153251D01*
X153443Y299538D01*
X80031Y226126D01*
X79500Y226196D01*
X78673Y226087D01*
X77902Y225768D01*
X77240Y225260D01*
X76732Y224598D01*
X76413Y223827D01*
X76304Y223000D01*
X76413Y222173D01*
X76732Y221402D01*
X77240Y220740D01*
X77902Y220232D01*
X78673Y219913D01*
X79500Y219804D01*
X80327Y219913D01*
X81098Y220232D01*
X81760Y220740D01*
X82268Y221402D01*
X82587Y222173D01*
X82696Y223000D01*
X82626Y223531D01*
X156660Y297565D01*
X160816D01*
X161007Y297103D01*
X90030Y226126D01*
X89500Y226196D01*
X88673Y226087D01*
X87902Y225768D01*
X87240Y225260D01*
X86732Y224598D01*
X86413Y223827D01*
X86304Y223000D01*
X86413Y222173D01*
X86732Y221402D01*
X87240Y220740D01*
X87902Y220232D01*
X88673Y219913D01*
X89500Y219804D01*
X90327Y219913D01*
X91098Y220232D01*
X91760Y220740D01*
X92268Y221402D01*
X92587Y222173D01*
X92696Y223000D01*
X92626Y223531D01*
X164060Y294965D01*
X168216D01*
X168407Y294503D01*
X100031Y226126D01*
X99500Y226196D01*
X98673Y226087D01*
X97902Y225768D01*
X97240Y225260D01*
X96732Y224598D01*
X96413Y223827D01*
X96304Y223000D01*
X96413Y222173D01*
X96732Y221402D01*
X97240Y220740D01*
X97902Y220232D01*
X98673Y219913D01*
X99500Y219804D01*
X100327Y219913D01*
X101098Y220232D01*
X101760Y220740D01*
X102268Y221402D01*
X102587Y222173D01*
X102696Y223000D01*
X102626Y223531D01*
X171560Y292465D01*
X175716D01*
X175907Y292003D01*
X110030Y226126D01*
X109500Y226196D01*
X108673Y226087D01*
X107902Y225768D01*
X107240Y225260D01*
X106732Y224598D01*
X106413Y223827D01*
X106304Y223000D01*
X106413Y222173D01*
X106732Y221402D01*
X107240Y220740D01*
X107902Y220232D01*
X108673Y219913D01*
X109500Y219804D01*
X110327Y219913D01*
X111098Y220232D01*
X111760Y220740D01*
X112268Y221402D01*
X112587Y222173D01*
X112696Y223000D01*
X112626Y223531D01*
X179160Y290065D01*
X183316D01*
X183507Y289603D01*
X120030Y226126D01*
X119500Y226196D01*
X118673Y226087D01*
X117902Y225768D01*
X117240Y225260D01*
X116732Y224598D01*
X116413Y223827D01*
X116304Y223000D01*
X116413Y222173D01*
X116732Y221402D01*
X117240Y220740D01*
X117902Y220232D01*
X118673Y219913D01*
X119500Y219804D01*
X120327Y219913D01*
X121098Y220232D01*
X121760Y220740D01*
X122268Y221402D01*
X122587Y222173D01*
X122696Y223000D01*
X122626Y223531D01*
X186660Y287565D01*
X279816Y287565D01*
X280007Y287103D01*
X264202Y271298D01*
X263804Y270702D01*
X263665Y270000D01*
Y207500D01*
X263804Y206798D01*
X264202Y206202D01*
X293665Y176740D01*
Y77760D01*
X280693Y64788D01*
X280533Y64854D01*
X279500Y64990D01*
X278467Y64854D01*
X277505Y64455D01*
X276679Y63821D01*
X276045Y62995D01*
X275646Y62033D01*
X275510Y61000D01*
X275646Y59967D01*
X276045Y59005D01*
X276679Y58179D01*
X277505Y57544D01*
X278467Y57146D01*
X279500Y57010D01*
X280533Y57146D01*
X281495Y57544D01*
X282321Y58179D01*
X282956Y59005D01*
X283354Y59967D01*
X283490Y61000D01*
X283354Y62033D01*
X283288Y62192D01*
X295703Y74607D01*
X296165Y74416D01*
Y66516D01*
X296304Y65813D01*
X296702Y65218D01*
X309728Y52192D01*
X309662Y52033D01*
X309526Y51000D01*
X309662Y49967D01*
X310060Y49005D01*
X310694Y48179D01*
X311521Y47545D01*
X312483Y47146D01*
X313516Y47010D01*
X314548Y47146D01*
X315511Y47545D01*
X316337Y48179D01*
X316971Y49005D01*
X317370Y49967D01*
X317506Y51000D01*
X317370Y52033D01*
X316971Y52995D01*
X316337Y53821D01*
X315511Y54456D01*
X314548Y54854D01*
X313516Y54990D01*
X312483Y54854D01*
X312323Y54788D01*
X299835Y67276D01*
Y71432D01*
X300297Y71623D01*
X309728Y62192D01*
X309662Y62033D01*
X309526Y61000D01*
X309662Y59967D01*
X310060Y59005D01*
X310694Y58179D01*
X311521Y57544D01*
X312483Y57146D01*
X313516Y57010D01*
X314548Y57146D01*
X315511Y57544D01*
X316337Y58179D01*
X316971Y59005D01*
X317370Y59967D01*
X317506Y61000D01*
X317370Y62033D01*
X316971Y62995D01*
X316337Y63821D01*
X315511Y64455D01*
X314548Y64854D01*
X313516Y64990D01*
X312483Y64854D01*
X312323Y64788D01*
X302335Y74776D01*
Y78932D01*
X302797Y79123D01*
X309728Y72193D01*
X309662Y72033D01*
X309526Y71000D01*
X309662Y69967D01*
X310060Y69005D01*
X310694Y68179D01*
X311521Y67545D01*
X312483Y67146D01*
X313516Y67010D01*
X314548Y67146D01*
X315511Y67545D01*
X316337Y68179D01*
X316971Y69005D01*
X317370Y69967D01*
X317506Y71000D01*
X317370Y72033D01*
X316971Y72995D01*
X316337Y73821D01*
X315511Y74455D01*
X314548Y74854D01*
X313516Y74990D01*
X312483Y74854D01*
X312323Y74788D01*
X304835Y82276D01*
Y126916D01*
X305297Y127107D01*
X309870Y122535D01*
X309662Y122033D01*
X309526Y121000D01*
X309662Y119967D01*
X310060Y119005D01*
X310694Y118179D01*
X311521Y117544D01*
X312483Y117146D01*
X313516Y117010D01*
X314548Y117146D01*
X315511Y117544D01*
X316337Y118179D01*
X316971Y119005D01*
X317370Y119967D01*
X317506Y121000D01*
X317370Y122033D01*
X316971Y122995D01*
X316337Y123821D01*
X315511Y124455D01*
X314548Y124854D01*
X313516Y124990D01*
X312711Y124884D01*
X307335Y130260D01*
Y201916D01*
X307797Y202107D01*
X315621Y194283D01*
X316216Y193886D01*
X316919Y193746D01*
X331875D01*
X332578Y193886D01*
X333173Y194283D01*
X363892Y225002D01*
X364289Y225598D01*
X364429Y226300D01*
X364429Y226301D01*
Y279006D01*
X364289Y279709D01*
X363892Y280304D01*
X344657Y299538D01*
X344849Y300000D01*
X598971D01*
X598971Y1529D01*
D02*
G37*
%LPC*%
G36*
X584684Y291080D02*
Y283400D01*
X592364D01*
X592247Y284584D01*
X591785Y286107D01*
X591035Y287511D01*
X590025Y288741D01*
X588795Y289751D01*
X587391Y290501D01*
X585868Y290963D01*
X584684Y291080D01*
D02*
G37*
G36*
X583884D02*
X582700Y290963D01*
X581177Y290501D01*
X579773Y289751D01*
X578543Y288741D01*
X577533Y287511D01*
X576783Y286107D01*
X576321Y284584D01*
X576204Y283400D01*
X583884D01*
Y291080D01*
D02*
G37*
G36*
X129500Y286196D02*
X128673Y286087D01*
X127902Y285768D01*
X127240Y285260D01*
X126732Y284598D01*
X126413Y283827D01*
X126304Y283000D01*
X126413Y282173D01*
X126732Y281402D01*
X127240Y280740D01*
X127902Y280232D01*
X128673Y279913D01*
X129500Y279804D01*
X130327Y279913D01*
X131098Y280232D01*
X131760Y280740D01*
X132268Y281402D01*
X132587Y282173D01*
X132696Y283000D01*
X132587Y283827D01*
X132268Y284598D01*
X131760Y285260D01*
X131098Y285768D01*
X130327Y286087D01*
X129500Y286196D01*
D02*
G37*
G36*
X119500D02*
X118673Y286087D01*
X117902Y285768D01*
X117240Y285260D01*
X116732Y284598D01*
X116413Y283827D01*
X116304Y283000D01*
X116413Y282173D01*
X116732Y281402D01*
X117240Y280740D01*
X117902Y280232D01*
X118673Y279913D01*
X119500Y279804D01*
X120327Y279913D01*
X121098Y280232D01*
X121760Y280740D01*
X122268Y281402D01*
X122587Y282173D01*
X122696Y283000D01*
X122587Y283827D01*
X122268Y284598D01*
X121760Y285260D01*
X121098Y285768D01*
X120327Y286087D01*
X119500Y286196D01*
D02*
G37*
G36*
X109500D02*
X108673Y286087D01*
X107902Y285768D01*
X107240Y285260D01*
X106732Y284598D01*
X106413Y283827D01*
X106304Y283000D01*
X106413Y282173D01*
X106732Y281402D01*
X107240Y280740D01*
X107902Y280232D01*
X108673Y279913D01*
X109500Y279804D01*
X110327Y279913D01*
X111098Y280232D01*
X111760Y280740D01*
X112268Y281402D01*
X112587Y282173D01*
X112696Y283000D01*
X112587Y283827D01*
X112268Y284598D01*
X111760Y285260D01*
X111098Y285768D01*
X110327Y286087D01*
X109500Y286196D01*
D02*
G37*
G36*
X99500D02*
X98673Y286087D01*
X97902Y285768D01*
X97240Y285260D01*
X96732Y284598D01*
X96413Y283827D01*
X96304Y283000D01*
X96413Y282173D01*
X96732Y281402D01*
X97240Y280740D01*
X97902Y280232D01*
X98673Y279913D01*
X99500Y279804D01*
X100327Y279913D01*
X101098Y280232D01*
X101760Y280740D01*
X102268Y281402D01*
X102587Y282173D01*
X102696Y283000D01*
X102587Y283827D01*
X102268Y284598D01*
X101760Y285260D01*
X101098Y285768D01*
X100327Y286087D01*
X99500Y286196D01*
D02*
G37*
G36*
X89500D02*
X88673Y286087D01*
X87902Y285768D01*
X87240Y285260D01*
X86732Y284598D01*
X86413Y283827D01*
X86304Y283000D01*
X86413Y282173D01*
X86732Y281402D01*
X87240Y280740D01*
X87902Y280232D01*
X88673Y279913D01*
X89500Y279804D01*
X90327Y279913D01*
X91098Y280232D01*
X91760Y280740D01*
X92268Y281402D01*
X92587Y282173D01*
X92696Y283000D01*
X92587Y283827D01*
X92268Y284598D01*
X91760Y285260D01*
X91098Y285768D01*
X90327Y286087D01*
X89500Y286196D01*
D02*
G37*
G36*
X79500D02*
X78673Y286087D01*
X77902Y285768D01*
X77240Y285260D01*
X76732Y284598D01*
X76413Y283827D01*
X76304Y283000D01*
X76374Y282470D01*
X54202Y260298D01*
X53804Y259702D01*
X53665Y259000D01*
Y223000D01*
X53804Y222298D01*
X54202Y221702D01*
X74702Y201202D01*
X75298Y200804D01*
X76000Y200665D01*
X217240D01*
X275712Y142192D01*
X275646Y142033D01*
X275510Y141000D01*
X275646Y139967D01*
X276045Y139005D01*
X276679Y138179D01*
X277505Y137545D01*
X278467Y137146D01*
X279500Y137010D01*
X280533Y137146D01*
X281495Y137545D01*
X282165Y138058D01*
X282665Y137849D01*
Y134151D01*
X282165Y133942D01*
X281495Y134456D01*
X280533Y134854D01*
X279500Y134990D01*
X278467Y134854D01*
X277505Y134456D01*
X276679Y133821D01*
X276045Y132995D01*
X275646Y132033D01*
X275510Y131000D01*
X275646Y129967D01*
X276045Y129005D01*
X276679Y128179D01*
X277505Y127544D01*
X278467Y127146D01*
X279500Y127010D01*
X280533Y127146D01*
X281495Y127544D01*
X282165Y128058D01*
X282665Y127849D01*
Y123210D01*
X282165Y123040D01*
X281893Y123393D01*
X281192Y123931D01*
X280376Y124269D01*
X279900Y124332D01*
Y121000D01*
Y117668D01*
X280376Y117730D01*
X281192Y118069D01*
X281893Y118606D01*
X282165Y118960D01*
X282665Y118790D01*
Y114151D01*
X282165Y113942D01*
X281495Y114455D01*
X280533Y114854D01*
X279500Y114990D01*
X278467Y114854D01*
X277505Y114455D01*
X276679Y113821D01*
X276045Y112995D01*
X275646Y112033D01*
X275510Y111000D01*
X275646Y109967D01*
X276045Y109005D01*
X276679Y108179D01*
X277505Y107545D01*
X278467Y107146D01*
X279500Y107010D01*
X280533Y107146D01*
X281495Y107545D01*
X282165Y108058D01*
X282665Y107850D01*
Y104150D01*
X282165Y103942D01*
X281495Y104455D01*
X280533Y104854D01*
X279500Y104990D01*
X278467Y104854D01*
X277505Y104455D01*
X276679Y103821D01*
X276045Y102995D01*
X275646Y102033D01*
X275510Y101000D01*
X275646Y99967D01*
X276045Y99005D01*
X276558Y98335D01*
X276349Y97835D01*
X248516D01*
X247813Y97696D01*
X247218Y97298D01*
X244708Y94788D01*
X244548Y94854D01*
X243516Y94990D01*
X242483Y94854D01*
X241521Y94455D01*
X240694Y93821D01*
X240060Y92995D01*
X239662Y92033D01*
X239526Y91000D01*
X239662Y89967D01*
X240060Y89005D01*
X240694Y88179D01*
X241521Y87545D01*
X242483Y87146D01*
X243516Y87010D01*
X244548Y87146D01*
X245511Y87545D01*
X246337Y88179D01*
X246971Y89005D01*
X247370Y89967D01*
X247506Y91000D01*
X247370Y92033D01*
X247304Y92193D01*
X249276Y94165D01*
X276349D01*
X276558Y93665D01*
X276045Y92995D01*
X275646Y92033D01*
X275510Y91000D01*
X275646Y89967D01*
X276045Y89005D01*
X276679Y88179D01*
X277505Y87545D01*
X278467Y87146D01*
X279500Y87010D01*
X280533Y87146D01*
X281495Y87545D01*
X282321Y88179D01*
X282956Y89005D01*
X283354Y89967D01*
X283490Y91000D01*
X283354Y92033D01*
X282956Y92995D01*
X282321Y93821D01*
X282316Y93825D01*
X282295Y93918D01*
X282368Y94415D01*
X282798Y94702D01*
X285798Y97702D01*
X286196Y98298D01*
X286335Y99000D01*
Y146000D01*
X286196Y146702D01*
X285798Y147298D01*
X283288Y149808D01*
X283354Y149967D01*
X283490Y151000D01*
X283354Y152033D01*
X282956Y152995D01*
X282321Y153821D01*
X281495Y154455D01*
X280533Y154854D01*
X279500Y154990D01*
X278467Y154854D01*
X277505Y154455D01*
X276679Y153821D01*
X276045Y152995D01*
X275646Y152033D01*
X275510Y151000D01*
X275646Y149967D01*
X276045Y149005D01*
X276679Y148179D01*
X277505Y147545D01*
X278467Y147146D01*
X279500Y147010D01*
X280533Y147146D01*
X280693Y147212D01*
X282665Y145240D01*
Y144150D01*
X282165Y143942D01*
X281495Y144456D01*
X280533Y144854D01*
X279500Y144990D01*
X278467Y144854D01*
X278308Y144788D01*
X219298Y203798D01*
X218702Y204196D01*
X218000Y204335D01*
X76760D01*
X57335Y223760D01*
Y258240D01*
X78969Y279874D01*
X79500Y279804D01*
X80327Y279913D01*
X81098Y280232D01*
X81760Y280740D01*
X82268Y281402D01*
X82587Y282173D01*
X82696Y283000D01*
X82587Y283827D01*
X82268Y284598D01*
X81760Y285260D01*
X81098Y285768D01*
X80327Y286087D01*
X79500Y286196D01*
D02*
G37*
G36*
X510500Y286990D02*
X509467Y286854D01*
X508505Y286455D01*
X507679Y285821D01*
X507045Y284995D01*
X506646Y284033D01*
X506510Y283000D01*
X506646Y281967D01*
X507045Y281005D01*
X507679Y280179D01*
X508505Y279544D01*
X509467Y279146D01*
X510500Y279010D01*
X511533Y279146D01*
X512495Y279544D01*
X513321Y280179D01*
X513955Y281005D01*
X514354Y281967D01*
X514490Y283000D01*
X514354Y284033D01*
X513955Y284995D01*
X513321Y285821D01*
X512495Y286455D01*
X511533Y286854D01*
X510500Y286990D01*
D02*
G37*
G36*
X592364Y282600D02*
X584684D01*
Y274920D01*
X585868Y275037D01*
X587391Y275499D01*
X588795Y276249D01*
X590025Y277259D01*
X591035Y278489D01*
X591785Y279893D01*
X592247Y281416D01*
X592364Y282600D01*
D02*
G37*
G36*
X583884D02*
X576204D01*
X576321Y281416D01*
X576783Y279893D01*
X577533Y278489D01*
X578543Y277259D01*
X579773Y276249D01*
X581177Y275499D01*
X582700Y275037D01*
X583884Y274920D01*
Y282600D01*
D02*
G37*
G36*
X499500Y261476D02*
X498519Y261347D01*
X497604Y260969D01*
X496819Y260366D01*
X496216Y259581D01*
X495838Y258666D01*
X495709Y257685D01*
X495838Y256704D01*
X496216Y255789D01*
X496819Y255004D01*
X497604Y254401D01*
X498519Y254023D01*
X499500Y253894D01*
X500481Y254023D01*
X501396Y254401D01*
X502181Y255004D01*
X502783Y255789D01*
X503162Y256704D01*
X503292Y257685D01*
X503162Y258666D01*
X502783Y259581D01*
X502181Y260366D01*
X501396Y260969D01*
X500481Y261347D01*
X499500Y261476D01*
D02*
G37*
G36*
X517216Y251634D02*
X516235Y251505D01*
X515321Y251126D01*
X514536Y250523D01*
X513933Y249738D01*
X513554Y248824D01*
X513425Y247843D01*
X513554Y246861D01*
X513933Y245947D01*
X514536Y245162D01*
X515321Y244559D01*
X516235Y244180D01*
X517216Y244051D01*
X518198Y244180D01*
X519112Y244559D01*
X519898Y245162D01*
X520500Y245947D01*
X520879Y246861D01*
X521008Y247843D01*
X520879Y248824D01*
X520500Y249738D01*
X519898Y250523D01*
X519112Y251126D01*
X518198Y251505D01*
X517216Y251634D01*
D02*
G37*
G36*
X481783D02*
X480802Y251505D01*
X479888Y251126D01*
X479103Y250523D01*
X478500Y249738D01*
X478121Y248824D01*
X477992Y247843D01*
X478121Y246861D01*
X478500Y245947D01*
X479103Y245162D01*
X479888Y244559D01*
X480802Y244180D01*
X481783Y244051D01*
X482765Y244180D01*
X483679Y244559D01*
X484464Y245162D01*
X485067Y245947D01*
X485446Y246861D01*
X485575Y247843D01*
X485446Y248824D01*
X485067Y249738D01*
X484464Y250523D01*
X483679Y251126D01*
X482765Y251505D01*
X481783Y251634D01*
D02*
G37*
G36*
X560500Y263065D02*
X559108Y262882D01*
X557810Y262344D01*
X556696Y261489D01*
X555841Y260375D01*
X555303Y259078D01*
X555120Y257685D01*
X555303Y256293D01*
X555841Y254995D01*
X556696Y253881D01*
X557810Y253026D01*
X558029Y252935D01*
Y252435D01*
X557810Y252344D01*
X556696Y251489D01*
X555841Y250375D01*
X555303Y249078D01*
X555120Y247685D01*
X555303Y246293D01*
X555841Y244995D01*
X556696Y243881D01*
X557810Y243026D01*
X558764Y242631D01*
Y242090D01*
X558113Y241820D01*
X557124Y241061D01*
X556365Y240072D01*
X555888Y238921D01*
X555778Y238085D01*
X560500D01*
X565222D01*
X565112Y238921D01*
X564635Y240072D01*
X563876Y241061D01*
X562887Y241820D01*
X562236Y242090D01*
Y242631D01*
X563190Y243026D01*
X564304Y243881D01*
X565159Y244995D01*
X565697Y246293D01*
X565880Y247685D01*
X565697Y249078D01*
X565159Y250375D01*
X564304Y251489D01*
X563190Y252344D01*
X562970Y252435D01*
Y252935D01*
X563190Y253026D01*
X564304Y253881D01*
X565159Y254995D01*
X565697Y256293D01*
X565880Y257685D01*
X565697Y259078D01*
X565159Y260375D01*
X564304Y261489D01*
X563190Y262344D01*
X561892Y262882D01*
X560500Y263065D01*
D02*
G37*
G36*
X499500Y241792D02*
X498519Y241662D01*
X497604Y241283D01*
X496819Y240681D01*
X496216Y239896D01*
X495838Y238981D01*
X495709Y238000D01*
X495838Y237019D01*
X496216Y236104D01*
X496819Y235319D01*
X497604Y234717D01*
X498519Y234338D01*
X499500Y234208D01*
X500481Y234338D01*
X501396Y234717D01*
X502181Y235319D01*
X502783Y236104D01*
X503162Y237019D01*
X503292Y238000D01*
X503162Y238981D01*
X502783Y239896D01*
X502181Y240681D01*
X501396Y241283D01*
X500481Y241662D01*
X499500Y241792D01*
D02*
G37*
G36*
X565222Y237285D02*
X560900D01*
Y232963D01*
X561736Y233073D01*
X562887Y233550D01*
X563876Y234309D01*
X564635Y235298D01*
X565112Y236449D01*
X565222Y237285D01*
D02*
G37*
G36*
X560100D02*
X555778D01*
X555888Y236449D01*
X556365Y235298D01*
X557124Y234309D01*
X558113Y233550D01*
X559264Y233073D01*
X560100Y232963D01*
Y237285D01*
D02*
G37*
G36*
X129500Y226196D02*
X128673Y226087D01*
X127902Y225768D01*
X127240Y225260D01*
X126732Y224598D01*
X126413Y223827D01*
X126304Y223000D01*
X126413Y222173D01*
X126732Y221402D01*
X127240Y220740D01*
X127902Y220232D01*
X128673Y219913D01*
X129500Y219804D01*
X130327Y219913D01*
X131098Y220232D01*
X131760Y220740D01*
X132268Y221402D01*
X132587Y222173D01*
X132696Y223000D01*
X132587Y223827D01*
X132268Y224598D01*
X131760Y225260D01*
X131098Y225768D01*
X130327Y226087D01*
X129500Y226196D01*
D02*
G37*
G36*
X516905Y212666D02*
X516027Y212550D01*
X515208Y212211D01*
X514505Y211672D01*
X514405Y211542D01*
X513905D01*
X513806Y211672D01*
X513103Y212211D01*
X512284Y212550D01*
X511406Y212666D01*
X510527Y212550D01*
X509708Y212211D01*
X509005Y211672D01*
X508906Y211542D01*
X508405D01*
X508306Y211672D01*
X507603Y212211D01*
X506784Y212550D01*
X505905Y212666D01*
X505027Y212550D01*
X504208Y212211D01*
X503505Y211672D01*
X502966Y210969D01*
X502627Y210150D01*
X502511Y209272D01*
Y205728D01*
X502627Y204850D01*
X502966Y204031D01*
X503505Y203328D01*
X504208Y202789D01*
X505027Y202450D01*
X505905Y202334D01*
X506784Y202450D01*
X507603Y202789D01*
X508306Y203328D01*
X508405Y203458D01*
X508906D01*
X509005Y203328D01*
X509708Y202789D01*
X510527Y202450D01*
X511406Y202334D01*
X512284Y202450D01*
X513103Y202789D01*
X513806Y203328D01*
X513905Y203458D01*
X514405D01*
X514505Y203328D01*
X515208Y202789D01*
X516027Y202450D01*
X516905Y202334D01*
X517784Y202450D01*
X518603Y202789D01*
X519306Y203328D01*
X519845Y204031D01*
X520184Y204850D01*
X520300Y205728D01*
Y209272D01*
X520184Y210150D01*
X519845Y210969D01*
X519306Y211672D01*
X518603Y212211D01*
X517784Y212550D01*
X516905Y212666D01*
D02*
G37*
G36*
X479501Y211490D02*
X478468Y211354D01*
X477506Y210956D01*
X476679Y210321D01*
X476045Y209495D01*
X475647Y208533D01*
X475511Y207500D01*
X475647Y206467D01*
X476045Y205505D01*
X476679Y204679D01*
X477506Y204045D01*
X478468Y203646D01*
X479501Y203510D01*
X480533Y203646D01*
X481496Y204045D01*
X482322Y204679D01*
X482956Y205505D01*
X483355Y206467D01*
X483491Y207500D01*
X483355Y208533D01*
X482956Y209495D01*
X482322Y210321D01*
X481496Y210956D01*
X480533Y211354D01*
X479501Y211490D01*
D02*
G37*
G36*
X449501D02*
X448468Y211354D01*
X447506Y210956D01*
X446679Y210321D01*
X446045Y209495D01*
X445647Y208533D01*
X445511Y207500D01*
X445647Y206467D01*
X446045Y205505D01*
X446679Y204679D01*
X447506Y204045D01*
X448468Y203646D01*
X449501Y203510D01*
X450533Y203646D01*
X451496Y204045D01*
X452322Y204679D01*
X452956Y205505D01*
X453355Y206467D01*
X453491Y207500D01*
X453355Y208533D01*
X452956Y209495D01*
X452322Y210321D01*
X451496Y210956D01*
X450533Y211354D01*
X449501Y211490D01*
D02*
G37*
G36*
X580500Y203990D02*
X579467Y203854D01*
X578505Y203455D01*
X577679Y202821D01*
X577044Y201995D01*
X576646Y201033D01*
X576510Y200000D01*
X576646Y198967D01*
X577044Y198005D01*
X577679Y197179D01*
X578505Y196545D01*
X579467Y196146D01*
X580500Y196010D01*
X581533Y196146D01*
X582495Y196545D01*
X583321Y197179D01*
X583955Y198005D01*
X584354Y198967D01*
X584490Y200000D01*
X584354Y201033D01*
X583955Y201995D01*
X583321Y202821D01*
X582495Y203455D01*
X581533Y203854D01*
X580500Y203990D01*
D02*
G37*
G36*
X550500D02*
X549467Y203854D01*
X548505Y203455D01*
X547679Y202821D01*
X547045Y201995D01*
X546646Y201033D01*
X546510Y200000D01*
X546646Y198967D01*
X547045Y198005D01*
X547679Y197179D01*
X548505Y196545D01*
X549467Y196146D01*
X550500Y196010D01*
X551533Y196146D01*
X552495Y196545D01*
X553321Y197179D01*
X553956Y198005D01*
X554354Y198967D01*
X554490Y200000D01*
X554354Y201033D01*
X553956Y201995D01*
X553321Y202821D01*
X552495Y203455D01*
X551533Y203854D01*
X550500Y203990D01*
D02*
G37*
G36*
X437208Y197790D02*
X436175Y197654D01*
X435213Y197256D01*
X434386Y196621D01*
X433752Y195795D01*
X433354Y194833D01*
X433218Y193800D01*
X433354Y192767D01*
X433752Y191805D01*
X434386Y190979D01*
X435213Y190345D01*
X436175Y189946D01*
X437208Y189810D01*
X438241Y189946D01*
X439203Y190345D01*
X440029Y190979D01*
X440663Y191805D01*
X441062Y192767D01*
X441198Y193800D01*
X441062Y194833D01*
X440663Y195795D01*
X440029Y196621D01*
X439203Y197256D01*
X438241Y197654D01*
X437208Y197790D01*
D02*
G37*
G36*
X32900Y192684D02*
Y185400D01*
X40184D01*
X40075Y186507D01*
X39636Y187956D01*
X38922Y189291D01*
X37962Y190462D01*
X36791Y191422D01*
X35456Y192136D01*
X34007Y192575D01*
X32900Y192684D01*
D02*
G37*
G36*
X32100D02*
X30993Y192575D01*
X29544Y192136D01*
X28209Y191422D01*
X27038Y190462D01*
X26078Y189291D01*
X25364Y187956D01*
X24925Y186507D01*
X24816Y185400D01*
X32100D01*
Y192684D01*
D02*
G37*
G36*
X407567Y189387D02*
X406431Y189238D01*
X405373Y188799D01*
X404465Y188102D01*
X403767Y187194D01*
X403329Y186135D01*
X403180Y185000D01*
X403329Y183864D01*
X403767Y182806D01*
X404465Y181898D01*
X405373Y181201D01*
X406431Y180762D01*
X407567Y180613D01*
X408702Y180762D01*
X409761Y181201D01*
X410669Y181898D01*
X411366Y182806D01*
X411805Y183864D01*
X411954Y185000D01*
X411805Y186135D01*
X411366Y187194D01*
X410669Y188102D01*
X409761Y188799D01*
X408702Y189238D01*
X407567Y189387D01*
D02*
G37*
G36*
X393000D02*
X391864Y189238D01*
X390806Y188799D01*
X389898Y188102D01*
X389201Y187194D01*
X388762Y186135D01*
X388613Y185000D01*
X388762Y183864D01*
X389201Y182806D01*
X389898Y181898D01*
X390806Y181201D01*
X391864Y180762D01*
X393000Y180613D01*
X394135Y180762D01*
X395194Y181201D01*
X396102Y181898D01*
X396799Y182806D01*
X397238Y183864D01*
X397387Y185000D01*
X397238Y186135D01*
X396799Y187194D01*
X396102Y188102D01*
X395194Y188799D01*
X394135Y189238D01*
X393000Y189387D01*
D02*
G37*
G36*
X378433D02*
X377298Y189238D01*
X376239Y188799D01*
X375331Y188102D01*
X374634Y187194D01*
X374195Y186135D01*
X374046Y185000D01*
X374195Y183864D01*
X374634Y182806D01*
X375331Y181898D01*
X376239Y181201D01*
X377298Y180762D01*
X378433Y180613D01*
X379569Y180762D01*
X380627Y181201D01*
X381535Y181898D01*
X382232Y182806D01*
X382671Y183864D01*
X382820Y185000D01*
X382671Y186135D01*
X382232Y187194D01*
X381535Y188102D01*
X380627Y188799D01*
X379569Y189238D01*
X378433Y189387D01*
D02*
G37*
G36*
X40184Y184600D02*
X32900D01*
Y177316D01*
X34007Y177425D01*
X35456Y177864D01*
X36791Y178578D01*
X37962Y179538D01*
X38922Y180709D01*
X39636Y182044D01*
X40075Y183493D01*
X40184Y184600D01*
D02*
G37*
G36*
X32100D02*
X24816D01*
X24925Y183493D01*
X25364Y182044D01*
X26078Y180709D01*
X27038Y179538D01*
X28209Y178578D01*
X29544Y177864D01*
X30993Y177425D01*
X32100Y177316D01*
Y184600D01*
D02*
G37*
G36*
X169500Y184990D02*
X168467Y184854D01*
X167505Y184456D01*
X166679Y183821D01*
X166044Y182995D01*
X165646Y182033D01*
X165510Y181000D01*
X165646Y179967D01*
X166044Y179005D01*
X166679Y178179D01*
X167505Y177544D01*
X168467Y177146D01*
X169500Y177010D01*
X170533Y177146D01*
X171495Y177544D01*
X172321Y178179D01*
X172956Y179005D01*
X173354Y179967D01*
X173490Y181000D01*
X173354Y182033D01*
X172956Y182995D01*
X172321Y183821D01*
X171495Y184456D01*
X170533Y184854D01*
X169500Y184990D01*
D02*
G37*
G36*
X109500D02*
X108467Y184854D01*
X107505Y184456D01*
X106679Y183821D01*
X106044Y182995D01*
X105646Y182033D01*
X105510Y181000D01*
X105646Y179967D01*
X106044Y179005D01*
X106679Y178179D01*
X107505Y177544D01*
X108467Y177146D01*
X109500Y177010D01*
X110533Y177146D01*
X111495Y177544D01*
X112321Y178179D01*
X112955Y179005D01*
X113354Y179967D01*
X113490Y181000D01*
X113354Y182033D01*
X112955Y182995D01*
X112321Y183821D01*
X111495Y184456D01*
X110533Y184854D01*
X109500Y184990D01*
D02*
G37*
G36*
X56122Y193327D02*
X54498Y193167D01*
X52936Y192693D01*
X51496Y191923D01*
X50234Y190888D01*
X49199Y189626D01*
X48429Y188187D01*
X47955Y186625D01*
X47795Y185000D01*
X47955Y183376D01*
X48429Y181814D01*
X49199Y180374D01*
X50234Y179112D01*
X51496Y178077D01*
X52936Y177307D01*
X54498Y176833D01*
X56122Y176673D01*
X57746Y176833D01*
X59308Y177307D01*
X60748Y178077D01*
X62010Y179112D01*
X63046Y180374D01*
X63815Y181814D01*
X64289Y183376D01*
X64449Y185000D01*
X64289Y186625D01*
X63815Y188187D01*
X63046Y189626D01*
X62010Y190888D01*
X60748Y191923D01*
X59308Y192693D01*
X57746Y193167D01*
X56122Y193327D01*
D02*
G37*
G36*
X169900Y174332D02*
Y171400D01*
X172832D01*
X172769Y171876D01*
X172431Y172692D01*
X171894Y173393D01*
X171192Y173931D01*
X170376Y174269D01*
X169900Y174332D01*
D02*
G37*
G36*
X169100D02*
X168624Y174269D01*
X167808Y173931D01*
X167106Y173393D01*
X166569Y172692D01*
X166230Y171876D01*
X166168Y171400D01*
X169100D01*
Y174332D01*
D02*
G37*
G36*
X460500Y178797D02*
X459467Y178661D01*
X458505Y178262D01*
X457679Y177628D01*
X457045Y176802D01*
X456646Y175839D01*
X456510Y174806D01*
X456646Y173774D01*
X457045Y172811D01*
X457679Y171985D01*
X458505Y171351D01*
X459467Y170952D01*
X460500Y170816D01*
X461533Y170952D01*
X462495Y171351D01*
X463321Y171985D01*
X463955Y172811D01*
X464354Y173774D01*
X464490Y174806D01*
X464354Y175839D01*
X463955Y176802D01*
X463321Y177628D01*
X462495Y178262D01*
X461533Y178661D01*
X460500Y178797D01*
D02*
G37*
G36*
X437209D02*
X436176Y178661D01*
X435214Y178262D01*
X434387Y177628D01*
X433753Y176802D01*
X433355Y175839D01*
X433218Y174806D01*
X433355Y173774D01*
X433753Y172811D01*
X434387Y171985D01*
X435214Y171351D01*
X436176Y170952D01*
X437209Y170816D01*
X438241Y170952D01*
X439204Y171351D01*
X440030Y171985D01*
X440664Y172811D01*
X441063Y173774D01*
X441199Y174806D01*
X441063Y175839D01*
X440664Y176802D01*
X440030Y177628D01*
X439204Y178262D01*
X438241Y178661D01*
X437209Y178797D01*
D02*
G37*
G36*
X172832Y170600D02*
X169900D01*
Y167668D01*
X170376Y167730D01*
X171192Y168069D01*
X171894Y168606D01*
X172431Y169308D01*
X172769Y170124D01*
X172832Y170600D01*
D02*
G37*
G36*
X169100D02*
X166168D01*
X166230Y170124D01*
X166569Y169308D01*
X167106Y168606D01*
X167808Y168069D01*
X168624Y167730D01*
X169100Y167668D01*
Y170600D01*
D02*
G37*
G36*
X109500Y174990D02*
X108467Y174854D01*
X107505Y174455D01*
X106679Y173821D01*
X106044Y172995D01*
X105646Y172033D01*
X105510Y171000D01*
X105646Y169967D01*
X106044Y169005D01*
X106679Y168179D01*
X107505Y167544D01*
X108467Y167146D01*
X109500Y167010D01*
X110533Y167146D01*
X111495Y167544D01*
X112321Y168179D01*
X112955Y169005D01*
X113354Y169967D01*
X113490Y171000D01*
X113354Y172033D01*
X112955Y172995D01*
X112321Y173821D01*
X111495Y174455D01*
X110533Y174854D01*
X109500Y174990D01*
D02*
G37*
G36*
X169500Y164990D02*
X168467Y164854D01*
X167505Y164455D01*
X166679Y163821D01*
X166044Y162995D01*
X165646Y162033D01*
X165510Y161000D01*
X165646Y159967D01*
X166044Y159005D01*
X166679Y158179D01*
X167505Y157545D01*
X168467Y157146D01*
X169500Y157010D01*
X170533Y157146D01*
X171495Y157545D01*
X172321Y158179D01*
X172956Y159005D01*
X173354Y159967D01*
X173490Y161000D01*
X173354Y162033D01*
X172956Y162995D01*
X172321Y163821D01*
X171495Y164455D01*
X170533Y164854D01*
X169500Y164990D01*
D02*
G37*
G36*
X109500D02*
X108467Y164854D01*
X107505Y164455D01*
X106679Y163821D01*
X106044Y162995D01*
X105646Y162033D01*
X105510Y161000D01*
X105646Y159967D01*
X106044Y159005D01*
X106679Y158179D01*
X107505Y157545D01*
X108467Y157146D01*
X109500Y157010D01*
X110533Y157146D01*
X111495Y157545D01*
X112321Y158179D01*
X112955Y159005D01*
X113354Y159967D01*
X113490Y161000D01*
X113354Y162033D01*
X112955Y162995D01*
X112321Y163821D01*
X111495Y164455D01*
X110533Y164854D01*
X109500Y164990D01*
D02*
G37*
G36*
X109900Y154332D02*
Y151400D01*
X112832D01*
X112769Y151876D01*
X112431Y152692D01*
X111893Y153393D01*
X111192Y153931D01*
X110376Y154270D01*
X109900Y154332D01*
D02*
G37*
G36*
X109100D02*
X108624Y154270D01*
X107808Y153931D01*
X107106Y153393D01*
X106569Y152692D01*
X106230Y151876D01*
X106168Y151400D01*
X109100D01*
Y154332D01*
D02*
G37*
G36*
X350900Y158080D02*
Y150400D01*
X358580D01*
X358463Y151584D01*
X358001Y153107D01*
X357251Y154511D01*
X356241Y155741D01*
X355011Y156751D01*
X353607Y157501D01*
X352084Y157963D01*
X350900Y158080D01*
D02*
G37*
G36*
X350100D02*
X348916Y157963D01*
X347393Y157501D01*
X345989Y156751D01*
X344759Y155741D01*
X343749Y154511D01*
X342999Y153107D01*
X342537Y151584D01*
X342420Y150400D01*
X350100D01*
Y158080D01*
D02*
G37*
G36*
X112832Y150600D02*
X109900D01*
Y147668D01*
X110376Y147731D01*
X111192Y148069D01*
X111893Y148607D01*
X112431Y149308D01*
X112769Y150124D01*
X112832Y150600D01*
D02*
G37*
G36*
X109100D02*
X106168D01*
X106230Y150124D01*
X106569Y149308D01*
X107106Y148607D01*
X107808Y148069D01*
X108624Y147731D01*
X109100Y147668D01*
Y150600D01*
D02*
G37*
G36*
X313516Y154990D02*
X312483Y154854D01*
X311521Y154455D01*
X310694Y153821D01*
X310060Y152995D01*
X309662Y152033D01*
X309526Y151000D01*
X309662Y149967D01*
X310060Y149005D01*
X310694Y148179D01*
X311521Y147545D01*
X312483Y147146D01*
X313516Y147010D01*
X314548Y147146D01*
X315511Y147545D01*
X316337Y148179D01*
X316971Y149005D01*
X317370Y149967D01*
X317506Y151000D01*
X317370Y152033D01*
X316971Y152995D01*
X316337Y153821D01*
X315511Y154455D01*
X314548Y154854D01*
X313516Y154990D01*
D02*
G37*
G36*
X15900Y153080D02*
Y145400D01*
X23580D01*
X23463Y146584D01*
X23001Y148107D01*
X22251Y149511D01*
X21241Y150741D01*
X20011Y151751D01*
X18607Y152501D01*
X17084Y152963D01*
X15900Y153080D01*
D02*
G37*
G36*
X15100D02*
X13916Y152963D01*
X12393Y152501D01*
X10989Y151751D01*
X9759Y150741D01*
X8749Y149511D01*
X7999Y148107D01*
X7537Y146584D01*
X7420Y145400D01*
X15100D01*
Y153080D01*
D02*
G37*
G36*
X460900Y148139D02*
Y145206D01*
X463832D01*
X463769Y145683D01*
X463431Y146499D01*
X462893Y147200D01*
X462192Y147738D01*
X461376Y148076D01*
X460900Y148139D01*
D02*
G37*
G36*
X460100Y148139D02*
X459624Y148076D01*
X458808Y147738D01*
X458107Y147200D01*
X457569Y146499D01*
X457231Y145683D01*
X457168Y145206D01*
X460100D01*
Y148139D01*
D02*
G37*
G36*
X358580Y149600D02*
X350900D01*
Y141920D01*
X352084Y142037D01*
X353607Y142499D01*
X355011Y143249D01*
X356241Y144259D01*
X357251Y145489D01*
X358001Y146893D01*
X358463Y148416D01*
X358580Y149600D01*
D02*
G37*
G36*
X350100D02*
X342420D01*
X342537Y148416D01*
X342999Y146893D01*
X343749Y145489D01*
X344759Y144259D01*
X345989Y143249D01*
X347393Y142499D01*
X348916Y142037D01*
X350100Y141920D01*
Y149600D01*
D02*
G37*
G36*
X460100Y144406D02*
X457168D01*
X457231Y143930D01*
X457569Y143114D01*
X458107Y142413D01*
X458808Y141875D01*
X459624Y141537D01*
X460100Y141474D01*
Y144406D01*
D02*
G37*
G36*
X463832D02*
X460900D01*
Y141474D01*
X461376Y141537D01*
X462192Y141875D01*
X462893Y142413D01*
X463431Y143114D01*
X463769Y143930D01*
X463832Y144406D01*
D02*
G37*
G36*
X56500Y149387D02*
X55365Y149238D01*
X54306Y148799D01*
X53398Y148102D01*
X52701Y147194D01*
X52262Y146135D01*
X52113Y145000D01*
X52262Y143865D01*
X52701Y142806D01*
X53398Y141898D01*
X54306Y141201D01*
X55365Y140762D01*
X56500Y140613D01*
X57635Y140762D01*
X58694Y141201D01*
X59602Y141898D01*
X60299Y142806D01*
X60738Y143865D01*
X60887Y145000D01*
X60738Y146135D01*
X60299Y147194D01*
X59602Y148102D01*
X58694Y148799D01*
X57635Y149238D01*
X56500Y149387D01*
D02*
G37*
G36*
X46500D02*
X45364Y149238D01*
X44306Y148799D01*
X43398Y148102D01*
X42701Y147194D01*
X42262Y146135D01*
X42113Y145000D01*
X42262Y143865D01*
X42701Y142806D01*
X43398Y141898D01*
X44306Y141201D01*
X45364Y140762D01*
X46500Y140613D01*
X47635Y140762D01*
X48693Y141201D01*
X49602Y141898D01*
X50299Y142806D01*
X50738Y143865D01*
X50887Y145000D01*
X50738Y146135D01*
X50299Y147194D01*
X49602Y148102D01*
X48693Y148799D01*
X47635Y149238D01*
X46500Y149387D01*
D02*
G37*
G36*
X36500D02*
X35364Y149238D01*
X34306Y148799D01*
X33398Y148102D01*
X32701Y147194D01*
X32262Y146135D01*
X32113Y145000D01*
X32262Y143865D01*
X32701Y142806D01*
X33398Y141898D01*
X34306Y141201D01*
X35364Y140762D01*
X36500Y140613D01*
X37635Y140762D01*
X38693Y141201D01*
X39602Y141898D01*
X40299Y142806D01*
X40738Y143865D01*
X40887Y145000D01*
X40738Y146135D01*
X40299Y147194D01*
X39602Y148102D01*
X38693Y148799D01*
X37635Y149238D01*
X36500Y149387D01*
D02*
G37*
G36*
X313516Y144990D02*
X312483Y144854D01*
X311521Y144456D01*
X310694Y143821D01*
X310060Y142995D01*
X309662Y142033D01*
X309526Y141000D01*
X309662Y139967D01*
X310060Y139005D01*
X310694Y138179D01*
X311521Y137545D01*
X312483Y137146D01*
X313516Y137010D01*
X314548Y137146D01*
X315511Y137545D01*
X316337Y138179D01*
X316971Y139005D01*
X317370Y139967D01*
X317506Y141000D01*
X317370Y142033D01*
X316971Y142995D01*
X316337Y143821D01*
X315511Y144456D01*
X314548Y144854D01*
X313516Y144990D01*
D02*
G37*
G36*
X169500D02*
X168467Y144854D01*
X167505Y144456D01*
X166679Y143821D01*
X166044Y142995D01*
X165646Y142033D01*
X165510Y141000D01*
X165646Y139967D01*
X166044Y139005D01*
X166679Y138179D01*
X167505Y137545D01*
X168467Y137146D01*
X169500Y137010D01*
X170533Y137146D01*
X171495Y137545D01*
X172321Y138179D01*
X172956Y139005D01*
X173354Y139967D01*
X173490Y141000D01*
X173354Y142033D01*
X172956Y142995D01*
X172321Y143821D01*
X171495Y144456D01*
X170533Y144854D01*
X169500Y144990D01*
D02*
G37*
G36*
X109500D02*
X108467Y144854D01*
X107505Y144456D01*
X106679Y143821D01*
X106044Y142995D01*
X105646Y142033D01*
X105510Y141000D01*
X105646Y139967D01*
X106044Y139005D01*
X106679Y138179D01*
X107505Y137545D01*
X108467Y137146D01*
X109500Y137010D01*
X110533Y137146D01*
X111495Y137545D01*
X112321Y138179D01*
X112955Y139005D01*
X113354Y139967D01*
X113490Y141000D01*
X113354Y142033D01*
X112955Y142995D01*
X112321Y143821D01*
X111495Y144456D01*
X110533Y144854D01*
X109500Y144990D01*
D02*
G37*
G36*
X23580Y144600D02*
X15900D01*
Y136920D01*
X17084Y137037D01*
X18607Y137499D01*
X20011Y138249D01*
X21241Y139259D01*
X22251Y140489D01*
X23001Y141893D01*
X23463Y143416D01*
X23580Y144600D01*
D02*
G37*
G36*
X15100D02*
X7420D01*
X7537Y143416D01*
X7999Y141893D01*
X8749Y140489D01*
X9759Y139259D01*
X10989Y138249D01*
X12393Y137499D01*
X13916Y137037D01*
X15100Y136920D01*
Y144600D01*
D02*
G37*
G36*
X527272Y136990D02*
X526239Y136854D01*
X525277Y136456D01*
X524450Y135821D01*
X523816Y134995D01*
X523418Y134033D01*
X523282Y133000D01*
X523418Y131967D01*
X523816Y131005D01*
X524450Y130179D01*
X525277Y129544D01*
X526239Y129146D01*
X527272Y129010D01*
X528304Y129146D01*
X529267Y129544D01*
X530093Y130179D01*
X530727Y131005D01*
X531126Y131967D01*
X531262Y133000D01*
X531126Y134033D01*
X530727Y134995D01*
X530093Y135821D01*
X529267Y136456D01*
X528304Y136854D01*
X527272Y136990D01*
D02*
G37*
G36*
X506405D02*
X505373Y136854D01*
X504411Y136456D01*
X503584Y135821D01*
X502950Y134995D01*
X502551Y134033D01*
X502416Y133000D01*
X502551Y131967D01*
X502950Y131005D01*
X503584Y130179D01*
X504411Y129544D01*
X505373Y129146D01*
X506405Y129010D01*
X507438Y129146D01*
X508400Y129544D01*
X509227Y130179D01*
X509861Y131005D01*
X510260Y131967D01*
X510395Y133000D01*
X510260Y134033D01*
X509861Y134995D01*
X509227Y135821D01*
X508400Y136456D01*
X507438Y136854D01*
X506405Y136990D01*
D02*
G37*
G36*
X313516Y134990D02*
X312483Y134854D01*
X311521Y134456D01*
X310694Y133821D01*
X310060Y132995D01*
X309662Y132033D01*
X309526Y131000D01*
X309662Y129967D01*
X310060Y129005D01*
X310694Y128179D01*
X311521Y127544D01*
X312483Y127146D01*
X313516Y127010D01*
X314548Y127146D01*
X315511Y127544D01*
X316337Y128179D01*
X316971Y129005D01*
X317370Y129967D01*
X317506Y131000D01*
X317370Y132033D01*
X316971Y132995D01*
X316337Y133821D01*
X315511Y134456D01*
X314548Y134854D01*
X313516Y134990D01*
D02*
G37*
G36*
X243516D02*
X242483Y134854D01*
X241521Y134456D01*
X240694Y133821D01*
X240060Y132995D01*
X239662Y132033D01*
X239526Y131000D01*
X239662Y129967D01*
X240060Y129005D01*
X240694Y128179D01*
X241521Y127544D01*
X242483Y127146D01*
X243516Y127010D01*
X244548Y127146D01*
X245511Y127544D01*
X246337Y128179D01*
X246971Y129005D01*
X247370Y129967D01*
X247506Y131000D01*
X247370Y132033D01*
X246971Y132995D01*
X246337Y133821D01*
X245511Y134456D01*
X244548Y134854D01*
X243516Y134990D01*
D02*
G37*
G36*
X209500D02*
X208467Y134854D01*
X207505Y134456D01*
X206679Y133821D01*
X206045Y132995D01*
X205646Y132033D01*
X205510Y131000D01*
X205646Y129967D01*
X206045Y129005D01*
X206679Y128179D01*
X207505Y127544D01*
X208467Y127146D01*
X209500Y127010D01*
X210533Y127146D01*
X211495Y127544D01*
X212321Y128179D01*
X212955Y129005D01*
X213354Y129967D01*
X213490Y131000D01*
X213354Y132033D01*
X212955Y132995D01*
X212321Y133821D01*
X211495Y134456D01*
X210533Y134854D01*
X209500Y134990D01*
D02*
G37*
G36*
X169500D02*
X168467Y134854D01*
X167505Y134456D01*
X166679Y133821D01*
X166044Y132995D01*
X165646Y132033D01*
X165510Y131000D01*
X165646Y129967D01*
X166044Y129005D01*
X166679Y128179D01*
X167505Y127544D01*
X168467Y127146D01*
X169500Y127010D01*
X170533Y127146D01*
X171495Y127544D01*
X172321Y128179D01*
X172956Y129005D01*
X173354Y129967D01*
X173490Y131000D01*
X173354Y132033D01*
X172956Y132995D01*
X172321Y133821D01*
X171495Y134456D01*
X170533Y134854D01*
X169500Y134990D01*
D02*
G37*
G36*
X279100Y124332D02*
X278624Y124269D01*
X277808Y123931D01*
X277106Y123393D01*
X276569Y122692D01*
X276231Y121876D01*
X276168Y121400D01*
X279100D01*
Y124332D01*
D02*
G37*
G36*
Y120600D02*
X276168D01*
X276231Y120124D01*
X276569Y119308D01*
X277106Y118606D01*
X277808Y118069D01*
X278624Y117730D01*
X279100Y117668D01*
Y120600D01*
D02*
G37*
G36*
X243516Y124990D02*
X242483Y124854D01*
X241521Y124455D01*
X240694Y123821D01*
X240060Y122995D01*
X239662Y122033D01*
X239526Y121000D01*
X239662Y119967D01*
X240060Y119005D01*
X240694Y118179D01*
X241521Y117544D01*
X242483Y117146D01*
X243516Y117010D01*
X244548Y117146D01*
X245511Y117544D01*
X246337Y118179D01*
X246971Y119005D01*
X247370Y119967D01*
X247506Y121000D01*
X247370Y122033D01*
X246971Y122995D01*
X246337Y123821D01*
X245511Y124455D01*
X244548Y124854D01*
X243516Y124990D01*
D02*
G37*
G36*
X209500D02*
X208467Y124854D01*
X207505Y124455D01*
X206679Y123821D01*
X206045Y122995D01*
X205646Y122033D01*
X205510Y121000D01*
X205646Y119967D01*
X206045Y119005D01*
X206679Y118179D01*
X207505Y117544D01*
X208467Y117146D01*
X209500Y117010D01*
X210533Y117146D01*
X211495Y117544D01*
X212321Y118179D01*
X212955Y119005D01*
X213354Y119967D01*
X213490Y121000D01*
X213354Y122033D01*
X212955Y122995D01*
X212321Y123821D01*
X211495Y124455D01*
X210533Y124854D01*
X209500Y124990D01*
D02*
G37*
G36*
X169500D02*
X168467Y124854D01*
X167505Y124455D01*
X166679Y123821D01*
X166044Y122995D01*
X165646Y122033D01*
X165510Y121000D01*
X165646Y119967D01*
X166044Y119005D01*
X166679Y118179D01*
X167505Y117544D01*
X168467Y117146D01*
X169500Y117010D01*
X170533Y117146D01*
X171495Y117544D01*
X172321Y118179D01*
X172956Y119005D01*
X173354Y119967D01*
X173490Y121000D01*
X173354Y122033D01*
X172956Y122995D01*
X172321Y123821D01*
X171495Y124455D01*
X170533Y124854D01*
X169500Y124990D01*
D02*
G37*
G36*
X109500D02*
X108467Y124854D01*
X107505Y124455D01*
X106679Y123821D01*
X106044Y122995D01*
X105646Y122033D01*
X105510Y121000D01*
X105646Y119967D01*
X106044Y119005D01*
X106679Y118179D01*
X107505Y117544D01*
X108467Y117146D01*
X109500Y117010D01*
X110533Y117146D01*
X111495Y117544D01*
X112321Y118179D01*
X112955Y119005D01*
X113354Y119967D01*
X113490Y121000D01*
X113354Y122033D01*
X112955Y122995D01*
X112321Y123821D01*
X111495Y124455D01*
X110533Y124854D01*
X109500Y124990D01*
D02*
G37*
G36*
X73601Y119332D02*
Y116400D01*
X76533D01*
X76470Y116876D01*
X76132Y117692D01*
X75594Y118394D01*
X74893Y118931D01*
X74077Y119270D01*
X73601Y119332D01*
D02*
G37*
G36*
X72801D02*
X72325Y119270D01*
X71508Y118931D01*
X70807Y118394D01*
X70269Y117692D01*
X69931Y116876D01*
X69869Y116400D01*
X72801D01*
Y119332D01*
D02*
G37*
G36*
X76533Y115600D02*
X73601D01*
Y112668D01*
X74077Y112731D01*
X74893Y113069D01*
X75594Y113607D01*
X76132Y114308D01*
X76470Y115124D01*
X76533Y115600D01*
D02*
G37*
G36*
X72801D02*
X69869D01*
X69931Y115124D01*
X70269Y114308D01*
X70807Y113607D01*
X71508Y113069D01*
X72325Y112731D01*
X72801Y112668D01*
Y115600D01*
D02*
G37*
G36*
X28493Y119991D02*
X27461Y119855D01*
X26498Y119456D01*
X25672Y118822D01*
X25038Y117996D01*
X24639Y117033D01*
X24503Y116001D01*
X24639Y114968D01*
X25038Y114006D01*
X25672Y113179D01*
X26498Y112545D01*
X27461Y112147D01*
X28493Y112011D01*
X29526Y112147D01*
X30488Y112545D01*
X31315Y113179D01*
X31949Y114006D01*
X32348Y114968D01*
X32484Y116001D01*
X32348Y117033D01*
X31949Y117996D01*
X31315Y118822D01*
X30488Y119456D01*
X29526Y119855D01*
X28493Y119991D01*
D02*
G37*
G36*
X43201Y119990D02*
X42168Y119854D01*
X41206Y119456D01*
X40379Y118821D01*
X39745Y117995D01*
X39347Y117033D01*
X39211Y116000D01*
X39347Y114967D01*
X39745Y114005D01*
X40379Y113179D01*
X41206Y112545D01*
X42168Y112146D01*
X43201Y112010D01*
X44234Y112146D01*
X45196Y112545D01*
X46022Y113179D01*
X46656Y114005D01*
X47055Y114967D01*
X47191Y116000D01*
X47055Y117033D01*
X46656Y117995D01*
X46022Y118821D01*
X45196Y119456D01*
X44234Y119854D01*
X43201Y119990D01*
D02*
G37*
G36*
X313516Y114990D02*
X312483Y114854D01*
X311521Y114455D01*
X310694Y113821D01*
X310060Y112995D01*
X309662Y112033D01*
X309526Y111000D01*
X309662Y109967D01*
X310060Y109005D01*
X310694Y108179D01*
X311521Y107545D01*
X312483Y107146D01*
X313516Y107010D01*
X314548Y107146D01*
X315511Y107545D01*
X316337Y108179D01*
X316971Y109005D01*
X317370Y109967D01*
X317506Y111000D01*
X317370Y112033D01*
X316971Y112995D01*
X316337Y113821D01*
X315511Y114455D01*
X314548Y114854D01*
X313516Y114990D01*
D02*
G37*
G36*
X243516D02*
X242483Y114854D01*
X241521Y114455D01*
X240694Y113821D01*
X240060Y112995D01*
X239662Y112033D01*
X239526Y111000D01*
X239662Y109967D01*
X240060Y109005D01*
X240694Y108179D01*
X241521Y107545D01*
X242483Y107146D01*
X243516Y107010D01*
X244548Y107146D01*
X245511Y107545D01*
X246337Y108179D01*
X246971Y109005D01*
X247370Y109967D01*
X247506Y111000D01*
X247370Y112033D01*
X246971Y112995D01*
X246337Y113821D01*
X245511Y114455D01*
X244548Y114854D01*
X243516Y114990D01*
D02*
G37*
G36*
X209500D02*
X208467Y114854D01*
X207505Y114455D01*
X206679Y113821D01*
X206045Y112995D01*
X205646Y112033D01*
X205510Y111000D01*
X205646Y109967D01*
X206045Y109005D01*
X206679Y108179D01*
X207505Y107545D01*
X208467Y107146D01*
X209500Y107010D01*
X210533Y107146D01*
X211495Y107545D01*
X212321Y108179D01*
X212955Y109005D01*
X213354Y109967D01*
X213490Y111000D01*
X213354Y112033D01*
X212955Y112995D01*
X212321Y113821D01*
X211495Y114455D01*
X210533Y114854D01*
X209500Y114990D01*
D02*
G37*
G36*
X169500D02*
X168467Y114854D01*
X167505Y114455D01*
X166679Y113821D01*
X166044Y112995D01*
X165646Y112033D01*
X165510Y111000D01*
X165646Y109967D01*
X166044Y109005D01*
X166679Y108179D01*
X167505Y107545D01*
X168467Y107146D01*
X169500Y107010D01*
X170533Y107146D01*
X171495Y107545D01*
X172321Y108179D01*
X172956Y109005D01*
X173354Y109967D01*
X173490Y111000D01*
X173354Y112033D01*
X172956Y112995D01*
X172321Y113821D01*
X171495Y114455D01*
X170533Y114854D01*
X169500Y114990D01*
D02*
G37*
G36*
X109500D02*
X108467Y114854D01*
X107505Y114455D01*
X106679Y113821D01*
X106044Y112995D01*
X105646Y112033D01*
X105510Y111000D01*
X105646Y109967D01*
X106044Y109005D01*
X106679Y108179D01*
X107505Y107545D01*
X108467Y107146D01*
X109500Y107010D01*
X110533Y107146D01*
X111495Y107545D01*
X112321Y108179D01*
X112955Y109005D01*
X113354Y109967D01*
X113490Y111000D01*
X113354Y112033D01*
X112955Y112995D01*
X112321Y113821D01*
X111495Y114455D01*
X110533Y114854D01*
X109500Y114990D01*
D02*
G37*
G36*
X313516Y104990D02*
X312483Y104854D01*
X311521Y104455D01*
X310694Y103821D01*
X310060Y102995D01*
X309662Y102033D01*
X309526Y101000D01*
X309662Y99967D01*
X310060Y99005D01*
X310694Y98179D01*
X311521Y97544D01*
X312483Y97146D01*
X313516Y97010D01*
X314548Y97146D01*
X315511Y97544D01*
X316337Y98179D01*
X316971Y99005D01*
X317370Y99967D01*
X317506Y101000D01*
X317370Y102033D01*
X316971Y102995D01*
X316337Y103821D01*
X315511Y104455D01*
X314548Y104854D01*
X313516Y104990D01*
D02*
G37*
G36*
X243516D02*
X242483Y104854D01*
X241521Y104455D01*
X240694Y103821D01*
X240060Y102995D01*
X239662Y102033D01*
X239526Y101000D01*
X239662Y99967D01*
X240060Y99005D01*
X240694Y98179D01*
X241521Y97544D01*
X242483Y97146D01*
X243516Y97010D01*
X244548Y97146D01*
X245511Y97544D01*
X246337Y98179D01*
X246971Y99005D01*
X247370Y99967D01*
X247506Y101000D01*
X247370Y102033D01*
X246971Y102995D01*
X246337Y103821D01*
X245511Y104455D01*
X244548Y104854D01*
X243516Y104990D01*
D02*
G37*
G36*
X209500D02*
X208467Y104854D01*
X207505Y104455D01*
X206679Y103821D01*
X206045Y102995D01*
X205646Y102033D01*
X205510Y101000D01*
X205646Y99967D01*
X206045Y99005D01*
X206679Y98179D01*
X207505Y97544D01*
X208467Y97146D01*
X209500Y97010D01*
X210533Y97146D01*
X211495Y97544D01*
X212321Y98179D01*
X212955Y99005D01*
X213354Y99967D01*
X213490Y101000D01*
X213354Y102033D01*
X212955Y102995D01*
X212321Y103821D01*
X211495Y104455D01*
X210533Y104854D01*
X209500Y104990D01*
D02*
G37*
G36*
X169500D02*
X168467Y104854D01*
X167505Y104455D01*
X166679Y103821D01*
X166044Y102995D01*
X165646Y102033D01*
X165510Y101000D01*
X165646Y99967D01*
X166044Y99005D01*
X166679Y98179D01*
X167505Y97544D01*
X168467Y97146D01*
X169500Y97010D01*
X170533Y97146D01*
X171495Y97544D01*
X172321Y98179D01*
X172956Y99005D01*
X173354Y99967D01*
X173490Y101000D01*
X173354Y102033D01*
X172956Y102995D01*
X172321Y103821D01*
X171495Y104455D01*
X170533Y104854D01*
X169500Y104990D01*
D02*
G37*
G36*
X109500D02*
X108467Y104854D01*
X107505Y104455D01*
X106679Y103821D01*
X106044Y102995D01*
X105646Y102033D01*
X105510Y101000D01*
X105646Y99967D01*
X106044Y99005D01*
X106679Y98179D01*
X107505Y97544D01*
X108467Y97146D01*
X109500Y97010D01*
X110533Y97146D01*
X111495Y97544D01*
X112321Y98179D01*
X112955Y99005D01*
X113354Y99967D01*
X113490Y101000D01*
X113354Y102033D01*
X112955Y102995D01*
X112321Y103821D01*
X111495Y104455D01*
X110533Y104854D01*
X109500Y104990D01*
D02*
G37*
G36*
X403250Y104240D02*
X402217Y104104D01*
X401255Y103706D01*
X400429Y103071D01*
X399795Y102245D01*
X399396Y101283D01*
X399260Y100250D01*
X399396Y99217D01*
X399795Y98255D01*
X400429Y97429D01*
X401255Y96794D01*
X402217Y96396D01*
X403250Y96260D01*
X404283Y96396D01*
X405245Y96794D01*
X406071Y97429D01*
X406706Y98255D01*
X407104Y99217D01*
X407240Y100250D01*
X407104Y101283D01*
X406706Y102245D01*
X406071Y103071D01*
X405245Y103706D01*
X404283Y104104D01*
X403250Y104240D01*
D02*
G37*
G36*
X382384D02*
X381351Y104104D01*
X380389Y103706D01*
X379562Y103071D01*
X378928Y102245D01*
X378530Y101283D01*
X378394Y100250D01*
X378530Y99217D01*
X378928Y98255D01*
X379562Y97429D01*
X380389Y96794D01*
X381351Y96396D01*
X382384Y96260D01*
X383417Y96396D01*
X384379Y96794D01*
X385205Y97429D01*
X385839Y98255D01*
X386238Y99217D01*
X386374Y100250D01*
X386238Y101283D01*
X385839Y102245D01*
X385205Y103071D01*
X384379Y103706D01*
X383417Y104104D01*
X382384Y104240D01*
D02*
G37*
G36*
X313516Y94990D02*
X312483Y94854D01*
X311521Y94455D01*
X310694Y93821D01*
X310060Y92995D01*
X309662Y92033D01*
X309526Y91000D01*
X309662Y89967D01*
X310060Y89005D01*
X310694Y88179D01*
X311521Y87545D01*
X312483Y87146D01*
X313516Y87010D01*
X314548Y87146D01*
X315511Y87545D01*
X316337Y88179D01*
X316971Y89005D01*
X317370Y89967D01*
X317506Y91000D01*
X317370Y92033D01*
X316971Y92995D01*
X316337Y93821D01*
X315511Y94455D01*
X314548Y94854D01*
X313516Y94990D01*
D02*
G37*
G36*
X209500D02*
X208467Y94854D01*
X207505Y94455D01*
X206679Y93821D01*
X206045Y92995D01*
X205646Y92033D01*
X205510Y91000D01*
X205646Y89967D01*
X206045Y89005D01*
X206679Y88179D01*
X207505Y87545D01*
X208467Y87146D01*
X209500Y87010D01*
X210533Y87146D01*
X211495Y87545D01*
X212321Y88179D01*
X212955Y89005D01*
X213354Y89967D01*
X213490Y91000D01*
X213354Y92033D01*
X212955Y92995D01*
X212321Y93821D01*
X211495Y94455D01*
X210533Y94854D01*
X209500Y94990D01*
D02*
G37*
G36*
X169500D02*
X168467Y94854D01*
X167505Y94455D01*
X166679Y93821D01*
X166044Y92995D01*
X165646Y92033D01*
X165510Y91000D01*
X165646Y89967D01*
X166044Y89005D01*
X166679Y88179D01*
X167505Y87545D01*
X168467Y87146D01*
X169500Y87010D01*
X170533Y87146D01*
X171495Y87545D01*
X172321Y88179D01*
X172956Y89005D01*
X173354Y89967D01*
X173490Y91000D01*
X173354Y92033D01*
X172956Y92995D01*
X172321Y93821D01*
X171495Y94455D01*
X170533Y94854D01*
X169500Y94990D01*
D02*
G37*
G36*
X109500D02*
X108467Y94854D01*
X107505Y94455D01*
X106679Y93821D01*
X106044Y92995D01*
X105646Y92033D01*
X105510Y91000D01*
X105646Y89967D01*
X106044Y89005D01*
X106679Y88179D01*
X107505Y87545D01*
X108467Y87146D01*
X109500Y87010D01*
X110533Y87146D01*
X111495Y87545D01*
X112321Y88179D01*
X112955Y89005D01*
X113354Y89967D01*
X113490Y91000D01*
X113354Y92033D01*
X112955Y92995D01*
X112321Y93821D01*
X111495Y94455D01*
X110533Y94854D01*
X109500Y94990D01*
D02*
G37*
G36*
X36500Y94189D02*
X35416Y94046D01*
X34406Y93627D01*
X33538Y92962D01*
X32873Y92094D01*
X32454Y91084D01*
X32311Y90000D01*
X32454Y88916D01*
X32873Y87906D01*
X33538Y87038D01*
X34406Y86373D01*
X35416Y85954D01*
X36500Y85811D01*
X37584Y85954D01*
X38594Y86373D01*
X39462Y87038D01*
X40127Y87906D01*
X40546Y88916D01*
X40689Y90000D01*
X40546Y91084D01*
X40127Y92094D01*
X39462Y92962D01*
X38594Y93627D01*
X37584Y94046D01*
X36500Y94189D01*
D02*
G37*
G36*
X313516Y84990D02*
X312483Y84854D01*
X311521Y84456D01*
X310694Y83821D01*
X310060Y82995D01*
X309662Y82033D01*
X309526Y81000D01*
X309662Y79967D01*
X310060Y79005D01*
X310694Y78179D01*
X311521Y77544D01*
X312483Y77146D01*
X313516Y77010D01*
X314548Y77146D01*
X315511Y77544D01*
X316337Y78179D01*
X316971Y79005D01*
X317370Y79967D01*
X317506Y81000D01*
X317370Y82033D01*
X316971Y82995D01*
X316337Y83821D01*
X315511Y84456D01*
X314548Y84854D01*
X313516Y84990D01*
D02*
G37*
G36*
X279500D02*
X278467Y84854D01*
X277505Y84456D01*
X276679Y83821D01*
X276045Y82995D01*
X275646Y82033D01*
X275510Y81000D01*
X275646Y79967D01*
X276045Y79005D01*
X276679Y78179D01*
X277505Y77544D01*
X278467Y77146D01*
X279500Y77010D01*
X280533Y77146D01*
X281495Y77544D01*
X282321Y78179D01*
X282956Y79005D01*
X283354Y79967D01*
X283490Y81000D01*
X283354Y82033D01*
X282956Y82995D01*
X282321Y83821D01*
X281495Y84456D01*
X280533Y84854D01*
X279500Y84990D01*
D02*
G37*
G36*
X243516D02*
X242483Y84854D01*
X241521Y84456D01*
X240694Y83821D01*
X240060Y82995D01*
X239662Y82033D01*
X239526Y81000D01*
X239662Y79967D01*
X240060Y79005D01*
X240694Y78179D01*
X241521Y77544D01*
X242483Y77146D01*
X243516Y77010D01*
X244548Y77146D01*
X245511Y77544D01*
X246337Y78179D01*
X246971Y79005D01*
X247370Y79967D01*
X247506Y81000D01*
X247370Y82033D01*
X246971Y82995D01*
X246337Y83821D01*
X245511Y84456D01*
X244548Y84854D01*
X243516Y84990D01*
D02*
G37*
G36*
X209500D02*
X208467Y84854D01*
X207505Y84456D01*
X206679Y83821D01*
X206045Y82995D01*
X205646Y82033D01*
X205510Y81000D01*
X205646Y79967D01*
X206045Y79005D01*
X206679Y78179D01*
X207505Y77544D01*
X208467Y77146D01*
X209500Y77010D01*
X210533Y77146D01*
X211495Y77544D01*
X212321Y78179D01*
X212955Y79005D01*
X213354Y79967D01*
X213490Y81000D01*
X213354Y82033D01*
X212955Y82995D01*
X212321Y83821D01*
X211495Y84456D01*
X210533Y84854D01*
X209500Y84990D01*
D02*
G37*
G36*
X169500D02*
X168467Y84854D01*
X167505Y84456D01*
X166679Y83821D01*
X166044Y82995D01*
X165646Y82033D01*
X165510Y81000D01*
X165646Y79967D01*
X166044Y79005D01*
X166679Y78179D01*
X167505Y77544D01*
X168467Y77146D01*
X169500Y77010D01*
X170533Y77146D01*
X171495Y77544D01*
X172321Y78179D01*
X172956Y79005D01*
X173354Y79967D01*
X173490Y81000D01*
X173354Y82033D01*
X172956Y82995D01*
X172321Y83821D01*
X171495Y84456D01*
X170533Y84854D01*
X169500Y84990D01*
D02*
G37*
G36*
X109500D02*
X108467Y84854D01*
X107505Y84456D01*
X106679Y83821D01*
X106044Y82995D01*
X105646Y82033D01*
X105510Y81000D01*
X105646Y79967D01*
X106044Y79005D01*
X106679Y78179D01*
X107505Y77544D01*
X108467Y77146D01*
X109500Y77010D01*
X110533Y77146D01*
X111495Y77544D01*
X112321Y78179D01*
X112955Y79005D01*
X113354Y79967D01*
X113490Y81000D01*
X113354Y82033D01*
X112955Y82995D01*
X112321Y83821D01*
X111495Y84456D01*
X110533Y84854D01*
X109500Y84990D01*
D02*
G37*
G36*
X36500Y84189D02*
X35416Y84046D01*
X34406Y83627D01*
X33538Y82962D01*
X32873Y82094D01*
X32454Y81084D01*
X32311Y80000D01*
X32454Y78916D01*
X32873Y77906D01*
X33538Y77038D01*
X34406Y76373D01*
X35416Y75954D01*
X36500Y75811D01*
X37584Y75954D01*
X38594Y76373D01*
X39462Y77038D01*
X40127Y77906D01*
X40546Y78916D01*
X40689Y80000D01*
X40546Y81084D01*
X40127Y82094D01*
X39462Y82962D01*
X38594Y83627D01*
X37584Y84046D01*
X36500Y84189D01*
D02*
G37*
G36*
X472154Y82730D02*
X471121Y82594D01*
X470158Y82196D01*
X469332Y81561D01*
X468698Y80735D01*
X468299Y79773D01*
X468163Y78740D01*
X468299Y77707D01*
X468698Y76745D01*
X469332Y75919D01*
X470158Y75285D01*
X471121Y74886D01*
X472154Y74750D01*
X473186Y74886D01*
X474149Y75285D01*
X474975Y75919D01*
X475609Y76745D01*
X476008Y77707D01*
X476144Y78740D01*
X476008Y79773D01*
X475609Y80735D01*
X474975Y81561D01*
X474149Y82196D01*
X473186Y82594D01*
X472154Y82730D01*
D02*
G37*
G36*
X582390Y81490D02*
X581357Y81354D01*
X580395Y80955D01*
X579568Y80321D01*
X578934Y79495D01*
X578536Y78533D01*
X578400Y77500D01*
X578536Y76467D01*
X578934Y75505D01*
X579568Y74679D01*
X580395Y74045D01*
X581357Y73646D01*
X582390Y73510D01*
X583423Y73646D01*
X584385Y74045D01*
X585211Y74679D01*
X585845Y75505D01*
X586244Y76467D01*
X586380Y77500D01*
X586244Y78533D01*
X585845Y79495D01*
X585211Y80321D01*
X584385Y80955D01*
X583423Y81354D01*
X582390Y81490D01*
D02*
G37*
G36*
X279900Y74332D02*
Y71400D01*
X282832D01*
X282769Y71876D01*
X282431Y72692D01*
X281893Y73393D01*
X281192Y73931D01*
X280376Y74269D01*
X279900Y74332D01*
D02*
G37*
G36*
X279100D02*
X278624Y74269D01*
X277808Y73931D01*
X277106Y73393D01*
X276569Y72692D01*
X276231Y71876D01*
X276168Y71400D01*
X279100D01*
Y74332D01*
D02*
G37*
G36*
X282832Y70600D02*
X279900D01*
Y67668D01*
X280376Y67730D01*
X281192Y68069D01*
X281893Y68607D01*
X282431Y69308D01*
X282769Y70124D01*
X282832Y70600D01*
D02*
G37*
G36*
X279100D02*
X276168D01*
X276231Y70124D01*
X276569Y69308D01*
X277106Y68607D01*
X277808Y68069D01*
X278624Y67730D01*
X279100Y67668D01*
Y70600D01*
D02*
G37*
G36*
X345500Y74990D02*
X344467Y74854D01*
X343505Y74455D01*
X342679Y73821D01*
X342044Y72995D01*
X341646Y72033D01*
X341510Y71000D01*
X341646Y69967D01*
X342044Y69005D01*
X342679Y68179D01*
X343505Y67545D01*
X344467Y67146D01*
X345500Y67010D01*
X346533Y67146D01*
X347495Y67545D01*
X348321Y68179D01*
X348955Y69005D01*
X349354Y69967D01*
X349490Y71000D01*
X349354Y72033D01*
X348955Y72995D01*
X348321Y73821D01*
X347495Y74455D01*
X346533Y74854D01*
X345500Y74990D01*
D02*
G37*
G36*
X243516D02*
X242483Y74854D01*
X241521Y74455D01*
X240694Y73821D01*
X240060Y72995D01*
X239662Y72033D01*
X239526Y71000D01*
X239662Y69967D01*
X240060Y69005D01*
X240694Y68179D01*
X241521Y67545D01*
X242483Y67146D01*
X243516Y67010D01*
X244548Y67146D01*
X245511Y67545D01*
X246337Y68179D01*
X246971Y69005D01*
X247370Y69967D01*
X247506Y71000D01*
X247370Y72033D01*
X246971Y72995D01*
X246337Y73821D01*
X245511Y74455D01*
X244548Y74854D01*
X243516Y74990D01*
D02*
G37*
G36*
X209500D02*
X208467Y74854D01*
X207505Y74455D01*
X206679Y73821D01*
X206045Y72995D01*
X205646Y72033D01*
X205510Y71000D01*
X205646Y69967D01*
X206045Y69005D01*
X206679Y68179D01*
X207505Y67545D01*
X208467Y67146D01*
X209500Y67010D01*
X210533Y67146D01*
X211495Y67545D01*
X212321Y68179D01*
X212955Y69005D01*
X213354Y69967D01*
X213490Y71000D01*
X213354Y72033D01*
X212955Y72995D01*
X212321Y73821D01*
X211495Y74455D01*
X210533Y74854D01*
X209500Y74990D01*
D02*
G37*
G36*
X169500D02*
X168467Y74854D01*
X167505Y74455D01*
X166679Y73821D01*
X166044Y72995D01*
X165646Y72033D01*
X165510Y71000D01*
X165646Y69967D01*
X166044Y69005D01*
X166679Y68179D01*
X167505Y67545D01*
X168467Y67146D01*
X169500Y67010D01*
X170533Y67146D01*
X171495Y67545D01*
X172321Y68179D01*
X172956Y69005D01*
X173354Y69967D01*
X173490Y71000D01*
X173354Y72033D01*
X172956Y72995D01*
X172321Y73821D01*
X171495Y74455D01*
X170533Y74854D01*
X169500Y74990D01*
D02*
G37*
G36*
X109500D02*
X108467Y74854D01*
X107505Y74455D01*
X106679Y73821D01*
X106044Y72995D01*
X105646Y72033D01*
X105510Y71000D01*
X105646Y69967D01*
X106044Y69005D01*
X106679Y68179D01*
X107505Y67545D01*
X108467Y67146D01*
X109500Y67010D01*
X110533Y67146D01*
X111495Y67545D01*
X112321Y68179D01*
X112955Y69005D01*
X113354Y69967D01*
X113490Y71000D01*
X113354Y72033D01*
X112955Y72995D01*
X112321Y73821D01*
X111495Y74455D01*
X110533Y74854D01*
X109500Y74990D01*
D02*
G37*
G36*
X36500Y74189D02*
X35416Y74046D01*
X34406Y73627D01*
X33538Y72962D01*
X32873Y72094D01*
X32454Y71084D01*
X32311Y70000D01*
X32454Y68916D01*
X32873Y67906D01*
X33538Y67038D01*
X34406Y66373D01*
X35416Y65954D01*
X36500Y65811D01*
X37584Y65954D01*
X38594Y66373D01*
X39462Y67038D01*
X40127Y67906D01*
X40546Y68916D01*
X40689Y70000D01*
X40546Y71084D01*
X40127Y72094D01*
X39462Y72962D01*
X38594Y73627D01*
X37584Y74046D01*
X36500Y74189D01*
D02*
G37*
G36*
X209900Y64332D02*
Y61400D01*
X212832D01*
X212770Y61876D01*
X212431Y62692D01*
X211893Y63393D01*
X211192Y63931D01*
X210376Y64270D01*
X209900Y64332D01*
D02*
G37*
G36*
X209100D02*
X208624Y64270D01*
X207808Y63931D01*
X207106Y63393D01*
X206569Y62692D01*
X206230Y61876D01*
X206168Y61400D01*
X209100D01*
Y64332D01*
D02*
G37*
G36*
X212832Y60600D02*
X209900D01*
Y57668D01*
X210376Y57731D01*
X211192Y58069D01*
X211893Y58606D01*
X212431Y59308D01*
X212770Y60124D01*
X212832Y60600D01*
D02*
G37*
G36*
X209100D02*
X206168D01*
X206230Y60124D01*
X206569Y59308D01*
X207106Y58606D01*
X207808Y58069D01*
X208624Y57731D01*
X209100Y57668D01*
Y60600D01*
D02*
G37*
G36*
X243516Y64990D02*
X242483Y64854D01*
X241521Y64455D01*
X240694Y63821D01*
X240060Y62995D01*
X239662Y62033D01*
X239526Y61000D01*
X239662Y59967D01*
X240060Y59005D01*
X240694Y58179D01*
X241521Y57544D01*
X242483Y57146D01*
X243516Y57010D01*
X244548Y57146D01*
X245511Y57544D01*
X246337Y58179D01*
X246971Y59005D01*
X247370Y59967D01*
X247506Y61000D01*
X247370Y62033D01*
X246971Y62995D01*
X246337Y63821D01*
X245511Y64455D01*
X244548Y64854D01*
X243516Y64990D01*
D02*
G37*
G36*
X169500D02*
X168467Y64854D01*
X167505Y64455D01*
X166679Y63821D01*
X166044Y62995D01*
X165646Y62033D01*
X165510Y61000D01*
X165646Y59967D01*
X166044Y59005D01*
X166679Y58179D01*
X167505Y57544D01*
X168467Y57146D01*
X169500Y57010D01*
X170533Y57146D01*
X171495Y57544D01*
X172321Y58179D01*
X172956Y59005D01*
X173354Y59967D01*
X173490Y61000D01*
X173354Y62033D01*
X172956Y62995D01*
X172321Y63821D01*
X171495Y64455D01*
X170533Y64854D01*
X169500Y64990D01*
D02*
G37*
G36*
X109500D02*
X108467Y64854D01*
X107505Y64455D01*
X106679Y63821D01*
X106044Y62995D01*
X105646Y62033D01*
X105510Y61000D01*
X105646Y59967D01*
X106044Y59005D01*
X106679Y58179D01*
X107505Y57544D01*
X108467Y57146D01*
X109500Y57010D01*
X110533Y57146D01*
X111495Y57544D01*
X112321Y58179D01*
X112955Y59005D01*
X113354Y59967D01*
X113490Y61000D01*
X113354Y62033D01*
X112955Y62995D01*
X112321Y63821D01*
X111495Y64455D01*
X110533Y64854D01*
X109500Y64990D01*
D02*
G37*
G36*
X36500Y64189D02*
X35416Y64046D01*
X34406Y63627D01*
X33538Y62962D01*
X32873Y62094D01*
X32454Y61084D01*
X32311Y60000D01*
X32454Y58916D01*
X32873Y57906D01*
X33538Y57038D01*
X34406Y56373D01*
X35416Y55954D01*
X36500Y55811D01*
X37584Y55954D01*
X38594Y56373D01*
X39462Y57038D01*
X40127Y57906D01*
X40546Y58916D01*
X40689Y60000D01*
X40546Y61084D01*
X40127Y62094D01*
X39462Y62962D01*
X38594Y63627D01*
X37584Y64046D01*
X36500Y64189D01*
D02*
G37*
G36*
X279500Y54990D02*
X278467Y54854D01*
X277505Y54456D01*
X276679Y53821D01*
X276045Y52995D01*
X275646Y52033D01*
X275510Y51000D01*
X275646Y49967D01*
X276045Y49005D01*
X276679Y48179D01*
X277505Y47545D01*
X278467Y47146D01*
X279500Y47010D01*
X280533Y47146D01*
X281495Y47545D01*
X282321Y48179D01*
X282956Y49005D01*
X283354Y49967D01*
X283490Y51000D01*
X283354Y52033D01*
X282956Y52995D01*
X282321Y53821D01*
X281495Y54456D01*
X280533Y54854D01*
X279500Y54990D01*
D02*
G37*
G36*
X109500D02*
X108467Y54854D01*
X107505Y54456D01*
X106679Y53821D01*
X106044Y52995D01*
X105646Y52033D01*
X105510Y51000D01*
X105646Y49967D01*
X106044Y49005D01*
X106679Y48179D01*
X107505Y47545D01*
X108467Y47146D01*
X109500Y47010D01*
X110533Y47146D01*
X111495Y47545D01*
X112321Y48179D01*
X112955Y49005D01*
X113354Y49967D01*
X113490Y51000D01*
X113354Y52033D01*
X112955Y52995D01*
X112321Y53821D01*
X111495Y54456D01*
X110533Y54854D01*
X109500Y54990D01*
D02*
G37*
G36*
X36500Y54189D02*
X35416Y54046D01*
X34406Y53627D01*
X33538Y52962D01*
X32873Y52094D01*
X32454Y51084D01*
X32311Y50000D01*
X32454Y48916D01*
X32873Y47906D01*
X33538Y47038D01*
X34406Y46373D01*
X35416Y45954D01*
X36500Y45811D01*
X37584Y45954D01*
X38594Y46373D01*
X39462Y47038D01*
X40127Y47906D01*
X40546Y48916D01*
X40689Y50000D01*
X40546Y51084D01*
X40127Y52094D01*
X39462Y52962D01*
X38594Y53627D01*
X37584Y54046D01*
X36500Y54189D01*
D02*
G37*
G36*
X313516Y44990D02*
X312483Y44854D01*
X311521Y44456D01*
X310694Y43821D01*
X310060Y42995D01*
X309662Y42033D01*
X309526Y41000D01*
X309662Y39967D01*
X310060Y39005D01*
X310694Y38179D01*
X311521Y37545D01*
X312483Y37146D01*
X313516Y37010D01*
X314548Y37146D01*
X315511Y37545D01*
X316337Y38179D01*
X316971Y39005D01*
X317370Y39967D01*
X317506Y41000D01*
X317370Y42033D01*
X316971Y42995D01*
X316337Y43821D01*
X315511Y44456D01*
X314548Y44854D01*
X313516Y44990D01*
D02*
G37*
G36*
X279500D02*
X278467Y44854D01*
X277505Y44456D01*
X276679Y43821D01*
X276045Y42995D01*
X275646Y42033D01*
X275510Y41000D01*
X275646Y39967D01*
X276045Y39005D01*
X276679Y38179D01*
X277505Y37545D01*
X278467Y37146D01*
X279500Y37010D01*
X280533Y37146D01*
X281495Y37545D01*
X282321Y38179D01*
X282956Y39005D01*
X283354Y39967D01*
X283490Y41000D01*
X283354Y42033D01*
X282956Y42995D01*
X282321Y43821D01*
X281495Y44456D01*
X280533Y44854D01*
X279500Y44990D01*
D02*
G37*
G36*
X109500D02*
X108467Y44854D01*
X107505Y44456D01*
X106679Y43821D01*
X106044Y42995D01*
X105646Y42033D01*
X105510Y41000D01*
X105646Y39967D01*
X106044Y39005D01*
X106679Y38179D01*
X107505Y37545D01*
X108467Y37146D01*
X109500Y37010D01*
X110533Y37146D01*
X111495Y37545D01*
X112321Y38179D01*
X112955Y39005D01*
X113354Y39967D01*
X113490Y41000D01*
X113354Y42033D01*
X112955Y42995D01*
X112321Y43821D01*
X111495Y44456D01*
X110533Y44854D01*
X109500Y44990D01*
D02*
G37*
G36*
X36500Y44189D02*
X35416Y44046D01*
X34406Y43627D01*
X33538Y42962D01*
X32873Y42094D01*
X32454Y41084D01*
X32311Y40000D01*
X32454Y38916D01*
X32873Y37906D01*
X33538Y37038D01*
X34406Y36373D01*
X35416Y35954D01*
X36500Y35811D01*
X37584Y35954D01*
X38594Y36373D01*
X39462Y37038D01*
X40127Y37906D01*
X40546Y38916D01*
X40689Y40000D01*
X40546Y41084D01*
X40127Y42094D01*
X39462Y42962D01*
X38594Y43627D01*
X37584Y44046D01*
X36500Y44189D01*
D02*
G37*
G36*
X403500Y33990D02*
X402467Y33854D01*
X401505Y33456D01*
X400679Y32821D01*
X400044Y31995D01*
X399646Y31033D01*
X399510Y30000D01*
X399646Y28967D01*
X400044Y28005D01*
X400679Y27179D01*
X401505Y26544D01*
X402467Y26146D01*
X403500Y26010D01*
X404533Y26146D01*
X405495Y26544D01*
X406321Y27179D01*
X406955Y28005D01*
X407354Y28967D01*
X407490Y30000D01*
X407354Y31033D01*
X406955Y31995D01*
X406321Y32821D01*
X405495Y33456D01*
X404533Y33854D01*
X403500Y33990D01*
D02*
G37*
G36*
X584684Y28080D02*
Y20400D01*
X592364D01*
X592247Y21584D01*
X591785Y23107D01*
X591035Y24511D01*
X590025Y25741D01*
X588795Y26751D01*
X587391Y27501D01*
X585868Y27963D01*
X584684Y28080D01*
D02*
G37*
G36*
X583884D02*
X582700Y27963D01*
X581177Y27501D01*
X579773Y26751D01*
X578543Y25741D01*
X577533Y24511D01*
X576783Y23107D01*
X576321Y21584D01*
X576204Y20400D01*
X583884D01*
Y28080D01*
D02*
G37*
G36*
X527272Y27612D02*
X526239Y27476D01*
X525277Y27077D01*
X524450Y26443D01*
X523816Y25617D01*
X523418Y24655D01*
X523282Y23622D01*
X523418Y22589D01*
X523816Y21627D01*
X524450Y20801D01*
X525277Y20167D01*
X526239Y19768D01*
X527272Y19632D01*
X528304Y19768D01*
X529267Y20167D01*
X530093Y20801D01*
X530727Y21627D01*
X531126Y22589D01*
X531262Y23622D01*
X531126Y24655D01*
X530727Y25617D01*
X530093Y26443D01*
X529267Y27077D01*
X528304Y27476D01*
X527272Y27612D01*
D02*
G37*
G36*
X15900Y23080D02*
Y15400D01*
X23580D01*
X23463Y16584D01*
X23001Y18107D01*
X22251Y19511D01*
X21241Y20741D01*
X20011Y21751D01*
X18607Y22501D01*
X17084Y22963D01*
X15900Y23080D01*
D02*
G37*
G36*
X15100D02*
X13916Y22963D01*
X12393Y22501D01*
X10989Y21751D01*
X9759Y20741D01*
X8749Y19511D01*
X7999Y18107D01*
X7537Y16584D01*
X7420Y15400D01*
X15100D01*
Y23080D01*
D02*
G37*
G36*
X592364Y19600D02*
X584684D01*
Y11920D01*
X585868Y12037D01*
X587391Y12499D01*
X588795Y13249D01*
X590025Y14259D01*
X591035Y15489D01*
X591785Y16893D01*
X592247Y18416D01*
X592364Y19600D01*
D02*
G37*
G36*
X583884D02*
X576204D01*
X576321Y18416D01*
X576783Y16893D01*
X577533Y15489D01*
X578543Y14259D01*
X579773Y13249D01*
X581177Y12499D01*
X582700Y12037D01*
X583884Y11920D01*
Y19600D01*
D02*
G37*
G36*
X540500Y286990D02*
X539467Y286854D01*
X538505Y286455D01*
X537679Y285821D01*
X537044Y284995D01*
X536646Y284033D01*
X536510Y283000D01*
X536646Y281967D01*
X537044Y281005D01*
X537679Y280179D01*
X538505Y279544D01*
X539467Y279146D01*
X540500Y279010D01*
X541533Y279146D01*
X542495Y279544D01*
X543321Y280179D01*
X543570Y280502D01*
X554465D01*
X593002Y241965D01*
X593002Y48535D01*
X551965Y7498D01*
X547687D01*
X547466Y7946D01*
X547610Y8134D01*
X547983Y9034D01*
X548110Y10000D01*
X547983Y10966D01*
X547970Y10997D01*
X562821Y25848D01*
X563219Y26443D01*
X563359Y27146D01*
Y73978D01*
X563519Y74045D01*
X564345Y74679D01*
X564979Y75505D01*
X565378Y76467D01*
X565514Y77500D01*
X565378Y78533D01*
X564979Y79495D01*
X564345Y80321D01*
X563519Y80955D01*
X562556Y81354D01*
X561524Y81490D01*
X560491Y81354D01*
X559529Y80955D01*
X558702Y80321D01*
X558068Y79495D01*
X557669Y78533D01*
X557534Y77500D01*
X557669Y76467D01*
X558068Y75505D01*
X558702Y74679D01*
X559529Y74045D01*
X559688Y73978D01*
Y27906D01*
X545374Y13592D01*
X545344Y13605D01*
X544378Y13732D01*
X499764D01*
X499573Y14194D01*
X505213Y19834D01*
X505373Y19768D01*
X506405Y19632D01*
X507438Y19768D01*
X508400Y20167D01*
X509227Y20801D01*
X509861Y21627D01*
X510260Y22589D01*
X510395Y23622D01*
X510260Y24655D01*
X509861Y25617D01*
X509227Y26443D01*
X508400Y27077D01*
X507438Y27476D01*
X506405Y27612D01*
X505373Y27476D01*
X504411Y27077D01*
X503584Y26443D01*
X502950Y25617D01*
X502551Y24655D01*
X502416Y23622D01*
X502551Y22589D01*
X502618Y22430D01*
X493920Y13732D01*
X434981D01*
X434789Y14194D01*
X452585Y31990D01*
X452983Y32585D01*
X453123Y33287D01*
Y75218D01*
X453282Y75285D01*
X454109Y75919D01*
X454743Y76745D01*
X455141Y77707D01*
X455277Y78740D01*
X455141Y79773D01*
X454743Y80735D01*
X454109Y81561D01*
X453282Y82196D01*
X452320Y82594D01*
X451287Y82730D01*
X450255Y82594D01*
X449292Y82196D01*
X448466Y81561D01*
X447832Y80735D01*
X447433Y79773D01*
X447297Y78740D01*
X447433Y77707D01*
X447832Y76745D01*
X448466Y75919D01*
X449292Y75285D01*
X449452Y75218D01*
Y34048D01*
X429137Y13732D01*
X369615D01*
X369423Y14194D01*
X381441Y26212D01*
X381601Y26146D01*
X382634Y26010D01*
X383667Y26146D01*
X384629Y26544D01*
X385455Y27179D01*
X386089Y28005D01*
X386488Y28967D01*
X386624Y30000D01*
X386488Y31033D01*
X386089Y31995D01*
X385455Y32821D01*
X384629Y33456D01*
X383667Y33854D01*
X382634Y33990D01*
X381601Y33854D01*
X380639Y33456D01*
X379813Y32821D01*
X379178Y31995D01*
X378780Y31033D01*
X378644Y30000D01*
X378780Y28967D01*
X378846Y28808D01*
X363770Y13732D01*
X337378D01*
X337279Y14232D01*
X337366Y14268D01*
X338139Y14861D01*
X360639Y37361D01*
X361232Y38134D01*
X361605Y39034D01*
X361732Y40000D01*
Y96000D01*
X361605Y96966D01*
X361232Y97866D01*
X360639Y98639D01*
X355639Y103639D01*
X354866Y104232D01*
X353966Y104605D01*
X353000Y104732D01*
X346828D01*
X346533Y104854D01*
X345500Y104990D01*
X344467Y104854D01*
X343505Y104455D01*
X342679Y103821D01*
X342044Y102995D01*
X341646Y102033D01*
X341510Y101000D01*
X341646Y99967D01*
X342044Y99005D01*
X342679Y98179D01*
X343505Y97544D01*
X344467Y97146D01*
X345500Y97010D01*
X346533Y97146D01*
X346828Y97268D01*
X351454D01*
X354268Y94454D01*
Y41546D01*
X333954Y21232D01*
X217046D01*
X184232Y54046D01*
Y146500D01*
X184105Y147466D01*
X183732Y148366D01*
X183139Y149139D01*
X178639Y153639D01*
X177866Y154232D01*
X176966Y154605D01*
X176000Y154732D01*
X170828D01*
X170533Y154854D01*
X169500Y154990D01*
X168467Y154854D01*
X167505Y154455D01*
X166679Y153821D01*
X166044Y152995D01*
X165646Y152033D01*
X165510Y151000D01*
X165646Y149967D01*
X166044Y149005D01*
X166679Y148179D01*
X167505Y147545D01*
X168467Y147146D01*
X169500Y147010D01*
X170533Y147146D01*
X170828Y147268D01*
X174454D01*
X176768Y144954D01*
Y52500D01*
X176895Y51534D01*
X177268Y50634D01*
X177861Y49861D01*
X212861Y14861D01*
X213634Y14268D01*
X213721Y14232D01*
X213622Y13732D01*
X212046D01*
X204139Y21639D01*
X173078Y52700D01*
X172956Y52995D01*
X172321Y53821D01*
X171495Y54456D01*
X170533Y54854D01*
X169500Y54990D01*
X168467Y54854D01*
X167505Y54456D01*
X166679Y53821D01*
X166044Y52995D01*
X165646Y52033D01*
X165510Y51000D01*
X165646Y49967D01*
X166044Y49005D01*
X166679Y48179D01*
X167505Y47545D01*
X167800Y47422D01*
X169793Y45429D01*
X169572Y44980D01*
X169500Y44990D01*
X168467Y44854D01*
X167505Y44456D01*
X166679Y43821D01*
X166044Y42995D01*
X165646Y42033D01*
X165510Y41000D01*
X165646Y39967D01*
X166044Y39005D01*
X166679Y38179D01*
X167505Y37545D01*
X168467Y37146D01*
X169500Y37010D01*
X170533Y37146D01*
X171495Y37545D01*
X172321Y38179D01*
X172956Y39005D01*
X173354Y39967D01*
X173490Y41000D01*
X173480Y41072D01*
X173929Y41293D01*
X193925Y21297D01*
X193734Y20835D01*
X41510D01*
X36930Y25416D01*
X37091Y25889D01*
X37584Y25954D01*
X38594Y26373D01*
X39462Y27038D01*
X40127Y27906D01*
X40546Y28916D01*
X40689Y30000D01*
X40546Y31084D01*
X40127Y32094D01*
X39462Y32962D01*
X38594Y33627D01*
X37584Y34046D01*
X36500Y34189D01*
X35416Y34046D01*
X34406Y33627D01*
X33538Y32962D01*
X32873Y32094D01*
X32454Y31084D01*
X32389Y30591D01*
X31916Y30430D01*
X27335Y35010D01*
Y97119D01*
X31885Y101669D01*
X32347Y101478D01*
Y95847D01*
X40653D01*
Y104153D01*
X35611D01*
X35344Y104653D01*
X35351Y104665D01*
X73201D01*
X73903Y104804D01*
X74498Y105202D01*
X80798Y111502D01*
X81196Y112097D01*
X81335Y112799D01*
Y135740D01*
X82760Y137165D01*
X84697D01*
X85909Y135952D01*
Y134956D01*
X82213D01*
Y127044D01*
X86188D01*
Y127644D01*
X86557D01*
Y129228D01*
X87357D01*
Y127644D01*
X88147D01*
X88513Y127319D01*
Y127044D01*
X92487D01*
Y129165D01*
X105978D01*
X106044Y129005D01*
X106679Y128179D01*
X107505Y127544D01*
X108467Y127146D01*
X109500Y127010D01*
X110533Y127146D01*
X111495Y127544D01*
X112321Y128179D01*
X112955Y129005D01*
X113354Y129967D01*
X113490Y131000D01*
X113354Y132033D01*
X112955Y132995D01*
X112321Y133821D01*
X111495Y134456D01*
X110533Y134854D01*
X109500Y134990D01*
X108467Y134854D01*
X107505Y134456D01*
X106679Y133821D01*
X106044Y132995D01*
X105978Y132835D01*
X92487D01*
Y134956D01*
X89579D01*
Y136713D01*
X89440Y137415D01*
X89042Y138010D01*
X86754Y140298D01*
X86159Y140696D01*
X85457Y140835D01*
X82000D01*
X81298Y140696D01*
X80702Y140298D01*
X78202Y137798D01*
X77804Y137202D01*
X77665Y136500D01*
Y113559D01*
X72441Y108335D01*
X34121D01*
X33419Y108196D01*
X32823Y107798D01*
X24202Y99177D01*
X23804Y98581D01*
X23665Y97879D01*
Y34250D01*
X23683Y34158D01*
X23291Y33605D01*
X23192Y33590D01*
X11998Y44785D01*
X11998Y112931D01*
X12321Y113179D01*
X12956Y114005D01*
X13354Y114967D01*
X13490Y116000D01*
X13354Y117033D01*
X12956Y117995D01*
X12321Y118821D01*
X11495Y119456D01*
X10533Y119854D01*
X9500Y119990D01*
X8467Y119854D01*
X7505Y119456D01*
X6679Y118821D01*
X6044Y117995D01*
X5646Y117033D01*
X5510Y116000D01*
X5646Y114967D01*
X6044Y114005D01*
X6679Y113179D01*
X7002Y112931D01*
X7002Y43750D01*
X7192Y42794D01*
X7734Y41984D01*
X46484Y3234D01*
X47294Y2692D01*
X48250Y2502D01*
X553000Y2502D01*
X553956Y2692D01*
X554766Y3234D01*
X597266Y45734D01*
X597808Y46544D01*
X597998Y47500D01*
X597998Y243000D01*
X597808Y243956D01*
X597266Y244766D01*
X557266Y284766D01*
X556456Y285308D01*
X555500Y285498D01*
X543570D01*
X543321Y285821D01*
X542495Y286455D01*
X541533Y286854D01*
X540500Y286990D01*
D02*
G37*
G36*
X23580Y14600D02*
X15900D01*
Y6920D01*
X17084Y7037D01*
X18607Y7499D01*
X20011Y8249D01*
X21241Y9259D01*
X22251Y10489D01*
X23001Y11893D01*
X23463Y13416D01*
X23580Y14600D01*
D02*
G37*
G36*
X15100D02*
X7420D01*
X7537Y13416D01*
X7999Y11893D01*
X8749Y10489D01*
X9759Y9259D01*
X10989Y8249D01*
X12393Y7499D01*
X13916Y7037D01*
X15100Y6920D01*
Y14600D01*
D02*
G37*
%LPD*%
G36*
X40750Y17165D02*
X198057D01*
X198861Y16361D01*
X207262Y7960D01*
X207071Y7498D01*
X49285Y7498D01*
X40090Y16692D01*
X40105Y16791D01*
X40658Y17183D01*
X40750Y17165D01*
D02*
G37*
D14*
X362634Y10000D02*
X428000D01*
X492783D01*
X544378D01*
X210500D02*
X362634D01*
X215500Y17500D02*
X335500D01*
X358000Y40000D01*
Y96000D01*
X353000Y101000D02*
X358000Y96000D01*
X345500Y101000D02*
X353000D01*
X169500Y151000D02*
X176000D01*
X180500Y52500D02*
X215500Y17500D01*
X180500Y52500D02*
Y146500D01*
X176000Y151000D02*
X180500Y146500D01*
X169500Y51000D02*
X201500Y19000D01*
X210500Y10000D01*
D16*
X155900Y299400D02*
X342200D01*
X79500Y223000D02*
X155900Y299400D01*
X342200D02*
X362594Y279006D01*
Y226300D02*
Y279006D01*
X359987Y227087D02*
Y278200D01*
X330887Y197987D02*
X359987Y227087D01*
X341400Y296800D02*
X359994Y278206D01*
X331875Y195581D02*
X362594Y226300D01*
X357400Y277400D02*
X357500Y228300D01*
X334258Y205058D02*
X357500Y228300D01*
X340500Y294300D02*
X357400Y277400D01*
X355000Y229700D02*
Y276400D01*
X337431Y212129D02*
X355001Y229699D01*
X339500Y291900D02*
X355000Y276400D01*
X315600Y286900D02*
X319500Y283000D01*
X282400Y286900D02*
X315600D01*
X265500Y270000D02*
X282400Y286900D01*
X316919Y195581D02*
X331875D01*
X324513Y197987D02*
X330887D01*
X327442Y205058D02*
X334258D01*
X330371Y212129D02*
X337431D01*
X305500Y207000D02*
X316919Y195581D01*
X289500Y223000D02*
X305500Y207000D01*
X43200Y116001D02*
X43201Y116000D01*
X312500Y91000D02*
X313516D01*
X169500Y50000D02*
Y51000D01*
X428000Y10000D02*
X451287Y33287D01*
Y78740D01*
X492783Y10000D02*
X506405Y23622D01*
X544378Y10000D02*
X561524Y27146D01*
X362634Y10000D02*
X382634Y30000D01*
X90500Y131000D02*
X109500D01*
X82000Y139000D02*
X85457D01*
X561524Y27146D02*
Y77500D01*
X87744Y132772D02*
Y136713D01*
X85457Y139000D02*
X87744Y136713D01*
X79500Y136500D02*
X82000Y139000D01*
X243516Y61000D02*
X244500D01*
X279500Y151000D02*
X284500Y146000D01*
X218000Y202500D02*
X279500Y141000D01*
X76000Y202500D02*
X218000D01*
X55500Y223000D02*
X76000Y202500D01*
X55500Y223000D02*
Y259000D01*
X79500Y283000D01*
X295500Y77000D02*
Y177500D01*
X265500Y207500D02*
X295500Y177500D01*
X298000Y66516D02*
X313516Y51000D01*
X298000Y66516D02*
Y180000D01*
X268000Y210000D02*
X298000Y180000D01*
X268000Y251500D02*
X299500Y283000D01*
X268000Y251500D02*
X268000Y210000D01*
X300500Y74016D02*
X313516Y61000D01*
X300500Y74016D02*
Y182500D01*
X270500Y212500D02*
X300500Y182500D01*
X270500Y244000D02*
X270500Y212500D01*
X270500Y244000D02*
X309500Y283000D01*
X303000Y81516D02*
X313516Y71000D01*
X273000Y215000D02*
X303000Y185000D01*
X273000Y215000D02*
Y240000D01*
X313516Y121000D02*
Y121484D01*
X305500Y129500D02*
X313516Y121484D01*
X329500Y223000D02*
X333300Y219200D01*
X319500Y223000D02*
X330371Y212129D01*
X309500Y223000D02*
X327442Y205058D01*
X119500Y223000D02*
X185850Y289350D01*
X99500Y223000D02*
X170850Y294350D01*
X89500Y223000D02*
X163300Y296800D01*
X299500Y223000D02*
X324513Y197987D01*
X305500Y129500D02*
Y207000D01*
X279500Y61000D02*
X295500Y77000D01*
X243516Y91000D02*
X248516Y96000D01*
X281500D01*
X284500Y99000D01*
Y146000D01*
X25500Y34250D02*
X40750Y19000D01*
X25500Y34250D02*
Y97879D01*
X34121Y106500D01*
X40750Y19000D02*
X201500D01*
X73201Y106500D02*
X79500Y112799D01*
Y136500D01*
X34121Y106500D02*
X73201D01*
X109500Y61000D02*
X110000Y60500D01*
X109500Y41000D02*
X109750Y40750D01*
X303000Y81516D02*
Y185000D01*
X265500Y207500D02*
Y270000D01*
X335600Y279100D02*
X339500Y283000D01*
X273000Y240000D02*
X312100Y279100D01*
X335600D01*
X333300Y219200D02*
X341108D01*
X352600Y230692D01*
X338600Y289400D02*
X352600Y275400D01*
Y230692D02*
Y275400D01*
X185850Y289400D02*
X338600Y289400D01*
X170900Y294300D02*
X340500Y294300D01*
X163300Y296800D02*
X341400Y296800D01*
X178400Y291900D02*
X339500Y291900D01*
X109500Y223000D02*
X178400Y291900D01*
D17*
X84201Y131000D02*
D03*
X90500D02*
D03*
D18*
X86957Y129228D02*
D03*
X87744Y132772D02*
D03*
D32*
X48250Y5000D02*
X553000Y5000D01*
X9500Y43750D02*
X48250Y5000D01*
X553000Y5000D02*
X595500Y47500D01*
X9500Y43750D02*
X9500Y116000D01*
X540500Y283000D02*
X555500D01*
X595500Y243000D01*
X595500Y47500D01*
X509500Y283000D02*
X510500D01*
X511406D01*
D33*
X32500Y185000D02*
D03*
X56122D02*
D03*
D34*
X36500Y60000D02*
D03*
Y50000D02*
D03*
Y40000D02*
D03*
Y30000D02*
D03*
Y90000D02*
D03*
Y80000D02*
D03*
Y70000D02*
D03*
D35*
Y100000D02*
D03*
D36*
X345500Y71000D02*
D03*
Y101000D02*
D03*
X243516Y61000D02*
D03*
Y71000D02*
D03*
Y81000D02*
D03*
Y91000D02*
D03*
Y101000D02*
D03*
Y111000D02*
D03*
Y121000D02*
D03*
Y131000D02*
D03*
X209500Y61000D02*
D03*
Y71000D02*
D03*
Y81000D02*
D03*
Y91000D02*
D03*
Y101000D02*
D03*
Y111000D02*
D03*
Y121000D02*
D03*
Y131000D02*
D03*
X313516Y41000D02*
D03*
Y51000D02*
D03*
Y61000D02*
D03*
Y71000D02*
D03*
Y81000D02*
D03*
Y91000D02*
D03*
Y101000D02*
D03*
Y111000D02*
D03*
Y121000D02*
D03*
Y131000D02*
D03*
Y141000D02*
D03*
Y151000D02*
D03*
X279500Y41000D02*
D03*
Y51000D02*
D03*
Y61000D02*
D03*
Y71000D02*
D03*
Y81000D02*
D03*
Y91000D02*
D03*
Y101000D02*
D03*
Y111000D02*
D03*
Y121000D02*
D03*
Y131000D02*
D03*
Y141000D02*
D03*
Y151000D02*
D03*
X169500Y181000D02*
D03*
Y171000D02*
D03*
Y161000D02*
D03*
Y41000D02*
D03*
Y51000D02*
D03*
Y61000D02*
D03*
Y71000D02*
D03*
Y81000D02*
D03*
Y91000D02*
D03*
Y101000D02*
D03*
Y111000D02*
D03*
Y121000D02*
D03*
Y131000D02*
D03*
Y141000D02*
D03*
Y151000D02*
D03*
X109500D02*
D03*
Y141000D02*
D03*
Y131000D02*
D03*
Y121000D02*
D03*
Y111000D02*
D03*
Y101000D02*
D03*
Y91000D02*
D03*
Y81000D02*
D03*
Y71000D02*
D03*
Y61000D02*
D03*
Y51000D02*
D03*
Y41000D02*
D03*
Y161000D02*
D03*
Y171000D02*
D03*
Y181000D02*
D03*
X9500Y116000D02*
D03*
X28493Y116001D02*
D03*
X73201Y116000D02*
D03*
X43201D02*
D03*
X561524Y77500D02*
D03*
X582390D02*
D03*
X506405Y23622D02*
D03*
X527272D02*
D03*
X540500Y283000D02*
D03*
X510500D02*
D03*
X506405Y133000D02*
D03*
X527272D02*
D03*
X451287Y78740D02*
D03*
X472154D02*
D03*
X382634Y30000D02*
D03*
X403500D02*
D03*
X382384Y100250D02*
D03*
X403250D02*
D03*
X460500Y174806D02*
D03*
Y144807D02*
D03*
X580500Y200000D02*
D03*
X550500D02*
D03*
X479501Y207500D02*
D03*
X449501D02*
D03*
X437209Y174806D02*
D03*
X437208Y193800D02*
D03*
D37*
X339500Y223000D02*
D03*
X329500D02*
D03*
X319500D02*
D03*
X289500D02*
D03*
X299500D02*
D03*
X309500D02*
D03*
X319500Y283000D02*
D03*
X329500D02*
D03*
X339500D02*
D03*
X309500D02*
D03*
X299500D02*
D03*
X289500D02*
D03*
X79500D02*
D03*
X89500D02*
D03*
X99500D02*
D03*
X129500D02*
D03*
X119500D02*
D03*
X109500D02*
D03*
X99500Y223000D02*
D03*
X89500D02*
D03*
X79500D02*
D03*
X109500D02*
D03*
X119500D02*
D03*
X129500D02*
D03*
D38*
X407567Y185000D02*
D03*
X393000D02*
D03*
X378433D02*
D03*
X56500Y145000D02*
D03*
X46500D02*
D03*
X36500D02*
D03*
D39*
X560500Y257685D02*
D03*
Y247685D02*
D03*
Y237685D02*
D03*
D40*
X481783Y247843D02*
D03*
X517216D02*
D03*
X499500Y238000D02*
D03*
Y257685D02*
D03*
D41*
X505905Y207500D02*
D03*
X516905D02*
D03*
D42*
X511406D02*
D03*
D43*
X584284Y20000D02*
D03*
Y283000D02*
D03*
X15500Y145000D02*
D03*
Y15000D02*
D03*
X350500Y150000D02*
D03*
M02*
