G04*
G04 #@! TF.GenerationSoftware,Altium Limited,Altium Designer,18.1.7 (191)*
G04*
G04 Layer_Color=65535*
%FSLAX25Y25*%
%MOIN*%
G70*
G01*
G75*
%ADD10C,0.00394*%
%ADD11C,0.00984*%
%ADD12C,0.01000*%
%ADD13C,0.00787*%
%ADD14C,0.05000*%
%ADD15C,0.01500*%
%ADD16C,0.01200*%
D10*
X81200Y127606D02*
G03*
X81200Y127606I-197J0D01*
G01*
X215090Y213433D02*
G03*
X215090Y213433I-197J0D01*
G01*
X5091D02*
G03*
X5091Y213433I-197J0D01*
G01*
D11*
X236154Y55705D02*
G03*
X236154Y55705I-492J0D01*
G01*
X287846Y154543D02*
G03*
X287846Y154543I-492J0D01*
G01*
X500756Y202185D02*
G03*
X500756Y202185I-492J0D01*
G01*
D12*
X523516Y247843D02*
G03*
X523516Y247843I-24016J0D01*
G01*
X8500Y211998D02*
Y207500D01*
X10749D01*
X11499Y208249D01*
Y211248D01*
X10749Y211998D01*
X8500D01*
X12999Y207500D02*
X14498D01*
X13748D01*
Y210498D01*
X12999D01*
X18247Y206000D02*
X18997D01*
X19746Y206750D01*
Y210498D01*
X17497D01*
X16747Y209749D01*
Y208249D01*
X17497Y207500D01*
X19746D01*
X21246D02*
X22745D01*
X21996D01*
Y210498D01*
X21246D01*
X25744Y211248D02*
Y210498D01*
X24995D01*
X26494D01*
X25744D01*
Y208249D01*
X26494Y207500D01*
X33242Y211248D02*
X33992Y211998D01*
X35491D01*
X36241Y211248D01*
Y208249D01*
X35491Y207500D01*
X33992D01*
X33242Y208249D01*
Y211248D01*
X42239Y209749D02*
X45238D01*
X46738Y207500D02*
X48987Y209749D01*
X46738Y211998D01*
X69500Y184499D02*
X75498D01*
X72499Y187498D02*
Y181500D01*
X78497D02*
X79997Y180000D01*
X82996D01*
X84495Y181500D01*
Y187498D01*
X82996Y188997D01*
X79997D01*
X78497Y187498D01*
Y185998D01*
X79997Y184499D01*
X84495D01*
X87494Y188997D02*
Y182999D01*
X90493Y180000D01*
X93492Y182999D01*
Y188997D01*
X218500Y212990D02*
Y208492D01*
X220749D01*
X221499Y209241D01*
Y212240D01*
X220749Y212990D01*
X218500D01*
X222998Y208492D02*
X224498D01*
X223748D01*
Y211491D01*
X222998D01*
X228247Y206992D02*
X228997D01*
X229746Y207742D01*
Y211491D01*
X227497D01*
X226747Y210741D01*
Y209241D01*
X227497Y208492D01*
X229746D01*
X231246D02*
X232745D01*
X231996D01*
Y211491D01*
X231246D01*
X235744Y212240D02*
Y211491D01*
X234995D01*
X236494D01*
X235744D01*
Y209241D01*
X236494Y208492D01*
X245491D02*
Y212990D01*
X243242Y210741D01*
X246241D01*
X252239D02*
X255238D01*
X256738Y208492D02*
X258987Y210741D01*
X256738Y212990D01*
X373749Y209492D02*
X371500Y211741D01*
X373749Y213990D01*
X375998Y211741D02*
X378998D01*
X384996Y213990D02*
Y209492D01*
X387245D01*
X387995Y210241D01*
Y213240D01*
X387245Y213990D01*
X384996D01*
X389494Y209492D02*
X390994D01*
X390244D01*
Y212491D01*
X389494D01*
X394742Y207992D02*
X395492D01*
X396242Y208742D01*
Y212491D01*
X393993D01*
X393243Y211741D01*
Y210241D01*
X393993Y209492D01*
X396242D01*
X397742D02*
X399241D01*
X398491D01*
Y212491D01*
X397742D01*
X402240Y213240D02*
Y212491D01*
X401490D01*
X402990D01*
X402240D01*
Y210241D01*
X402990Y209492D01*
X409738Y213990D02*
X412737D01*
Y213240D01*
X409738Y210241D01*
Y209492D01*
X163749Y208500D02*
X161500Y210749D01*
X163749Y212998D01*
X165998Y210749D02*
X168998D01*
X174996Y212998D02*
Y208500D01*
X177245D01*
X177995Y209249D01*
Y212248D01*
X177245Y212998D01*
X174996D01*
X179494Y208500D02*
X180994D01*
X180244D01*
Y211498D01*
X179494D01*
X184742Y207000D02*
X185492D01*
X186242Y207750D01*
Y211498D01*
X183993D01*
X183243Y210749D01*
Y209249D01*
X183993Y208500D01*
X186242D01*
X187741D02*
X189241D01*
X188491D01*
Y211498D01*
X187741D01*
X192240Y212248D02*
Y211498D01*
X191490D01*
X192990D01*
X192240D01*
Y209249D01*
X192990Y208500D01*
X199738Y212248D02*
X200487Y212998D01*
X201987D01*
X202737Y212248D01*
Y211498D01*
X201987Y210749D01*
X201237D01*
X201987D01*
X202737Y209999D01*
Y209249D01*
X201987Y208500D01*
X200487D01*
X199738Y209249D01*
X45500Y101999D02*
Y99000D01*
X46999D01*
X47499Y99500D01*
Y101499D01*
X46999Y101999D01*
X45500D01*
X48499D02*
X50498D01*
Y101499D01*
X48499Y99500D01*
Y99000D01*
X45500Y91999D02*
Y89000D01*
X46999D01*
X47499Y89500D01*
Y91499D01*
X46999Y91999D01*
X45500D01*
X48499Y91499D02*
X48999Y91999D01*
X49999D01*
X50498Y91499D01*
Y90999D01*
X49999Y90500D01*
X50498Y90000D01*
Y89500D01*
X49999Y89000D01*
X48999D01*
X48499Y89500D01*
Y90000D01*
X48999Y90500D01*
X48499Y90999D01*
Y91499D01*
X48999Y90500D02*
X49999D01*
X45500Y81999D02*
Y79000D01*
X46999D01*
X47499Y79500D01*
Y81499D01*
X46999Y81999D01*
X45500D01*
X48499Y79500D02*
X48999Y79000D01*
X49999D01*
X50498Y79500D01*
Y81499D01*
X49999Y81999D01*
X48999D01*
X48499Y81499D01*
Y80999D01*
X48999Y80500D01*
X50498D01*
X45500Y71999D02*
Y69000D01*
X46999D01*
X47499Y69500D01*
Y71499D01*
X46999Y71999D01*
X45500D01*
X48499Y69000D02*
X49499D01*
X48999D01*
Y71999D01*
X48499Y71499D01*
X50998D02*
X51498Y71999D01*
X52498D01*
X52998Y71499D01*
Y69500D01*
X52498Y69000D01*
X51498D01*
X50998Y69500D01*
Y71499D01*
X45500Y61999D02*
Y59000D01*
X46999D01*
X47499Y59500D01*
Y61499D01*
X46999Y61999D01*
X45500D01*
X48499Y59000D02*
X49499D01*
X48999D01*
Y61999D01*
X48499Y61499D01*
X50998Y59000D02*
X51998D01*
X51498D01*
Y61999D01*
X50998Y61499D01*
X45500Y51999D02*
Y49000D01*
X46999D01*
X47499Y49500D01*
Y51499D01*
X46999Y51999D01*
X45500D01*
X48499Y49000D02*
X49499D01*
X48999D01*
Y51999D01*
X48499Y51499D01*
X52998Y49000D02*
X50998D01*
X52998Y50999D01*
Y51499D01*
X52498Y51999D01*
X51498D01*
X50998Y51499D01*
X45500Y41999D02*
Y39000D01*
X46999D01*
X47499Y39500D01*
Y41499D01*
X46999Y41999D01*
X45500D01*
X48499Y39000D02*
X49499D01*
X48999D01*
Y41999D01*
X48499Y41499D01*
X50998D02*
X51498Y41999D01*
X52498D01*
X52998Y41499D01*
Y40999D01*
X52498Y40499D01*
X51998D01*
X52498D01*
X52998Y40000D01*
Y39500D01*
X52498Y39000D01*
X51498D01*
X50998Y39500D01*
X45500Y29000D02*
Y30999D01*
X46500Y31999D01*
X47499Y30999D01*
Y29000D01*
Y30500D01*
X45500D01*
X48499Y31999D02*
X50498D01*
Y31499D01*
X48499Y29500D01*
Y29000D01*
X542702Y232200D02*
X546701D01*
X548700Y234199D01*
X546701Y236199D01*
X542702D01*
X548700Y239198D02*
Y241197D01*
X547700Y242197D01*
X545701D01*
X544701Y241197D01*
Y239198D01*
X545701Y238198D01*
X547700D01*
X548700Y239198D01*
Y244196D02*
Y246196D01*
Y245196D01*
X542702D01*
Y244196D01*
X544701Y249195D02*
X547700D01*
X548700Y250194D01*
Y253193D01*
X544701D01*
X548700Y255193D02*
X544701D01*
Y256192D01*
X545701Y257192D01*
X548700D01*
X545701D01*
X544701Y258192D01*
X545701Y259191D01*
X548700D01*
Y264190D02*
Y262190D01*
X547700Y261191D01*
X545701D01*
X544701Y262190D01*
Y264190D01*
X545701Y265189D01*
X546701D01*
Y261191D01*
X5122Y164998D02*
Y159000D01*
X8121D01*
X9121Y160000D01*
Y163998D01*
X8121Y164998D01*
X5122D01*
X15119Y163998D02*
X14119Y164998D01*
X12120D01*
X11120Y163998D01*
Y160000D01*
X12120Y159000D01*
X14119D01*
X15119Y160000D01*
X17118Y159000D02*
X19117D01*
X18118D01*
Y164998D01*
X17118Y163998D01*
X59000Y40998D02*
Y35000D01*
Y37999D01*
X62999D01*
Y40998D01*
Y35000D01*
X64998D02*
X66997D01*
X65998D01*
Y40998D01*
X64998Y39998D01*
X89799Y123998D02*
X87800D01*
X86800Y122998D01*
Y119000D01*
X87800Y118000D01*
X89799D01*
X90799Y119000D01*
Y122998D01*
X89799Y123998D01*
X92798Y118000D02*
X94797D01*
X93798D01*
Y123998D01*
X92798Y122998D01*
X343000Y107100D02*
Y113098D01*
X345999D01*
X346999Y112098D01*
Y110099D01*
X345999Y109099D01*
X343000D01*
X344999D02*
X346999Y107100D01*
X352997D02*
X348998D01*
X352997Y111099D01*
Y112098D01*
X351997Y113098D01*
X349998D01*
X348998Y112098D01*
X204600Y146700D02*
Y152698D01*
X207599D01*
X208599Y151698D01*
Y149699D01*
X207599Y148699D01*
X204600D01*
X206599D02*
X208599Y146700D01*
X210598D02*
Y152698D01*
X213597D01*
X214597Y151698D01*
Y149699D01*
X213597Y148699D01*
X210598D01*
X216596Y146700D02*
X218596D01*
X217596D01*
Y152698D01*
X216596Y151698D01*
X405832Y296665D02*
X404999Y297498D01*
X403333D01*
X402500Y296665D01*
Y295832D01*
X403333Y294999D01*
X404999D01*
X405832Y294166D01*
Y293333D01*
X404999Y292500D01*
X403333D01*
X402500Y293333D01*
X407498Y292500D02*
X409164D01*
X408331D01*
Y297498D01*
X407498Y296665D01*
X352299Y186998D02*
X351299Y187998D01*
X349300D01*
X348300Y186998D01*
Y185999D01*
X349300Y184999D01*
X351299D01*
X352299Y183999D01*
Y183000D01*
X351299Y182000D01*
X349300D01*
X348300Y183000D01*
X354298Y187998D02*
Y182000D01*
X356297Y183999D01*
X358297Y182000D01*
Y187998D01*
X360296Y186998D02*
X361296Y187998D01*
X363295D01*
X364295Y186998D01*
Y183000D01*
X363295Y182000D01*
X361296D01*
X360296Y183000D01*
Y186998D01*
X275100Y170498D02*
X279099Y164500D01*
Y170498D02*
X275100Y164500D01*
X281098D02*
X283097D01*
X282098D01*
Y170498D01*
X281098Y169498D01*
X179000Y183300D02*
Y187299D01*
X180999Y189298D01*
X182999Y187299D01*
Y183300D01*
Y186299D01*
X179000D01*
X184998Y183300D02*
X186997D01*
X185998D01*
Y189298D01*
X184998Y188298D01*
X33001Y109000D02*
X37500D01*
Y111999D01*
X33001Y116498D02*
Y113499D01*
X37500D01*
Y116498D01*
X35251Y113499D02*
Y114998D01*
X33001Y117997D02*
X37500D01*
Y120246D01*
X36750Y120996D01*
X33751D01*
X33001Y120246D01*
Y117997D01*
X37500Y125495D02*
Y122496D01*
X34501Y125495D01*
X33751D01*
X33001Y124745D01*
Y123245D01*
X33751Y122496D01*
X53500Y121000D02*
Y126998D01*
X56499D01*
X57499Y125998D01*
Y123999D01*
X56499Y122999D01*
X53500D01*
X55499D02*
X57499Y121000D01*
X59498Y125998D02*
X60498Y126998D01*
X62497D01*
X63497Y125998D01*
Y124999D01*
X62497Y123999D01*
X61497D01*
X62497D01*
X63497Y122999D01*
Y122000D01*
X62497Y121000D01*
X60498D01*
X59498Y122000D01*
X11832Y296165D02*
X10999Y296998D01*
X9333D01*
X8500Y296165D01*
Y295332D01*
X9333Y294499D01*
X10999D01*
X11832Y293666D01*
Y292833D01*
X10999Y292000D01*
X9333D01*
X8500Y292833D01*
X16831Y292000D02*
X13498D01*
X16831Y295332D01*
Y296165D01*
X15998Y296998D01*
X14331D01*
X13498Y296165D01*
X548100Y137498D02*
Y131500D01*
X551099D01*
X552099Y132500D01*
Y133499D01*
X551099Y134499D01*
X548100D01*
X551099D01*
X552099Y135499D01*
Y136498D01*
X551099Y137498D01*
X548100D01*
X554098Y136498D02*
X555098Y137498D01*
X557097D01*
X558097Y136498D01*
Y132500D01*
X557097Y131500D01*
X555098D01*
X554098Y132500D01*
Y136498D01*
X493000Y83598D02*
Y77600D01*
X495999D01*
X496999Y78600D01*
Y79599D01*
X495999Y80599D01*
X493000D01*
X495999D01*
X496999Y81599D01*
Y82598D01*
X495999Y83598D01*
X493000D01*
X498998Y77600D02*
X500997D01*
X499998D01*
Y83598D01*
X498998Y82598D01*
X493000Y192998D02*
Y187000D01*
X495999D01*
X496999Y188000D01*
Y188999D01*
X495999Y189999D01*
X493000D01*
X495999D01*
X496999Y190999D01*
Y191998D01*
X495999Y192998D01*
X493000D01*
X502997Y187000D02*
X498998D01*
X502997Y190999D01*
Y191998D01*
X501997Y192998D01*
X499998D01*
X498998Y191998D01*
X437900Y138698D02*
Y132700D01*
X440899D01*
X441899Y133700D01*
Y134699D01*
X440899Y135699D01*
X437900D01*
X440899D01*
X441899Y136699D01*
Y137698D01*
X440899Y138698D01*
X437900D01*
X443898Y137698D02*
X444898Y138698D01*
X446897D01*
X447897Y137698D01*
Y136699D01*
X446897Y135699D01*
X445897D01*
X446897D01*
X447897Y134699D01*
Y133700D01*
X446897Y132700D01*
X444898D01*
X443898Y133700D01*
X369300Y89998D02*
Y84000D01*
X372299D01*
X373299Y85000D01*
Y85999D01*
X372299Y86999D01*
X369300D01*
X372299D01*
X373299Y87999D01*
Y88998D01*
X372299Y89998D01*
X369300D01*
X378297Y84000D02*
Y89998D01*
X375298Y86999D01*
X379297D01*
X369000Y160198D02*
Y154200D01*
X371999D01*
X372999Y155200D01*
Y156199D01*
X371999Y157199D01*
X369000D01*
X371999D01*
X372999Y158199D01*
Y159198D01*
X371999Y160198D01*
X369000D01*
X378997D02*
X374998D01*
Y157199D01*
X376997Y158199D01*
X377997D01*
X378997Y157199D01*
Y155200D01*
X377997Y154200D01*
X375998D01*
X374998Y155200D01*
X70000Y135000D02*
X65501D01*
Y137249D01*
X66251Y137999D01*
X67751D01*
X68501Y137249D01*
Y135000D01*
X65501Y139499D02*
X70000D01*
X68501Y140998D01*
X70000Y142498D01*
X65501D01*
X70000Y143997D02*
X65501D01*
Y146246D01*
X66251Y146996D01*
X67751D01*
X68501Y146246D01*
Y143997D01*
Y145497D02*
X70000Y146996D01*
X66251Y151495D02*
X65501Y150745D01*
Y149245D01*
X66251Y148496D01*
X67001D01*
X67751Y149245D01*
Y150745D01*
X68501Y151495D01*
X69250D01*
X70000Y150745D01*
Y149245D01*
X69250Y148496D01*
X65501Y152994D02*
X70000D01*
X68501Y154494D01*
X70000Y155993D01*
X65501D01*
X467200Y158206D02*
Y164205D01*
X470199D01*
X471199Y163205D01*
Y161205D01*
X470199Y160206D01*
X467200D01*
X469199D02*
X471199Y158206D01*
X473198D02*
X475197D01*
X474198D01*
Y164205D01*
X473198Y163205D01*
X560500Y185000D02*
Y190998D01*
X563499D01*
X564499Y189998D01*
Y187999D01*
X563499Y186999D01*
X560500D01*
X562499D02*
X564499Y185000D01*
X570497Y190998D02*
X568497Y189998D01*
X566498Y187999D01*
Y186000D01*
X567498Y185000D01*
X569497D01*
X570497Y186000D01*
Y186999D01*
X569497Y187999D01*
X566498D01*
X460500Y192500D02*
Y198498D01*
X463499D01*
X464499Y197498D01*
Y195499D01*
X463499Y194499D01*
X460500D01*
X462499D02*
X464499Y192500D01*
X470497Y198498D02*
X466498D01*
Y195499D01*
X468497Y196499D01*
X469497D01*
X470497Y195499D01*
Y193500D01*
X469497Y192500D01*
X467498D01*
X466498Y193500D01*
X508400Y289500D02*
Y295498D01*
X511399D01*
X512399Y294498D01*
Y292499D01*
X511399Y291499D01*
X508400D01*
X510399D02*
X512399Y289500D01*
X517397D02*
Y295498D01*
X514398Y292499D01*
X518397D01*
X551100Y219400D02*
Y225398D01*
X554099D01*
X555099Y224398D01*
Y222399D01*
X554099Y221399D01*
X551100D01*
X560097Y225398D02*
X558098D01*
X557098Y224398D01*
Y220400D01*
X558098Y219400D01*
X560097D01*
X561097Y220400D01*
Y224398D01*
X560097Y225398D01*
X563096D02*
X567095D01*
X565096D01*
Y219400D01*
X569094D02*
X571094D01*
X570094D01*
Y225398D01*
X569094Y224398D01*
X430000Y166998D02*
Y161000D01*
X433999D01*
X439997Y166998D02*
X435998D01*
Y161000D01*
X439997D01*
X435998Y163999D02*
X437997D01*
X441996Y166998D02*
Y161000D01*
X444995D01*
X445995Y162000D01*
Y165998D01*
X444995Y166998D01*
X441996D01*
X447994Y161000D02*
X449994D01*
X448994D01*
Y166998D01*
X447994Y165998D01*
X476000Y281398D02*
Y275400D01*
X478999D01*
X479999Y276400D01*
Y277399D01*
X478999Y278399D01*
X476000D01*
X478999D01*
X479999Y279399D01*
Y280398D01*
X478999Y281398D01*
X476000D01*
X481998D02*
X485997D01*
Y280398D01*
X481998Y276400D01*
Y275400D01*
X485997D01*
X487996D02*
X489995D01*
X488996D01*
Y281398D01*
X487996Y280398D01*
D13*
X519201Y201594D02*
G03*
X503610Y201594I-7795J5906D01*
G01*
X31500Y25000D02*
X41500D01*
X31500D02*
Y105000D01*
X41500D01*
Y25000D02*
Y105000D01*
X345500Y96000D02*
Y96900D01*
Y75100D02*
Y76000D01*
Y96000D02*
X348500D01*
Y76000D02*
Y96000D01*
X342500Y76000D02*
X348500D01*
X342500D02*
Y96000D01*
X345500D01*
X222768Y140941D02*
X230248D01*
X222768Y51059D02*
X230248D01*
X214894Y215008D02*
X299539D01*
X329461D02*
X414106D01*
X214894Y290992D02*
X299539D01*
X329461D02*
X414106D01*
X214894Y215008D02*
Y290992D01*
X414106Y215008D02*
Y290992D01*
X292768Y159189D02*
X300248D01*
X292768Y32811D02*
X300248D01*
X68201Y116000D02*
Y119000D01*
X48201D02*
X68201D01*
X48201Y113000D02*
Y119000D01*
Y113000D02*
X68201D01*
Y116000D01*
X47301D02*
X48201D01*
X68201D02*
X69101D01*
X204106Y215008D02*
Y290992D01*
X4894Y215008D02*
Y290992D01*
X119461D02*
X204106D01*
X4894D02*
X89539D01*
X119461Y215008D02*
X204106D01*
X4894D02*
X89539D01*
X514600Y283000D02*
X515500D01*
X535500D02*
X536400D01*
X515500D02*
Y286000D01*
X535500D01*
Y280000D02*
Y286000D01*
X515500Y280000D02*
X535500D01*
X515500D02*
Y283000D01*
X460500Y148907D02*
Y149806D01*
Y169807D02*
Y170706D01*
X457500Y149806D02*
X460500D01*
X457500D02*
Y169807D01*
X463500D01*
Y149806D02*
Y169807D01*
X460500Y149806D02*
X463500D01*
X554600Y200000D02*
X555500D01*
X575500D02*
X576400D01*
X555500D02*
Y203000D01*
X575500D01*
Y197000D02*
Y203000D01*
X555500Y197000D02*
X575500D01*
X555500D02*
Y200000D01*
X453601Y207500D02*
X454501D01*
X474501D02*
X475401D01*
X454501D02*
Y210500D01*
X474501D01*
Y204500D02*
Y210500D01*
X454501Y204500D02*
X474501D01*
X454501D02*
Y207500D01*
X503610Y201594D02*
X519201D01*
D14*
X431708Y257685D02*
Y277685D01*
Y257685D02*
X451708D01*
Y237685D02*
Y257685D01*
Y277185D01*
X451208Y277685D02*
X451708Y277185D01*
X431708Y277685D02*
X451208D01*
X431708Y237685D02*
X451708D01*
X431708D02*
Y257685D01*
Y277685D01*
D15*
X420000Y223000D02*
Y290000D01*
Y223000D02*
X465000D01*
Y290000D01*
X420000D02*
X465000D01*
X19749Y134499D02*
X18250D01*
X17500Y133749D01*
Y130750D01*
X18250Y130000D01*
X19749D01*
X20499Y130750D01*
Y133749D01*
X19749Y134499D01*
X21998Y130000D02*
Y132999D01*
X24248D01*
X24998Y132249D01*
Y130000D01*
X435499Y296249D02*
X434749Y296999D01*
X433250D01*
X432500Y296249D01*
Y293250D01*
X433250Y292500D01*
X434749D01*
X435499Y293250D01*
Y294749D01*
X433999D01*
X436999Y295499D02*
Y293250D01*
X437748Y292500D01*
X439998D01*
Y295499D01*
X441497Y292500D02*
X442997D01*
X442247D01*
Y295499D01*
X441497D01*
X448245Y296999D02*
Y292500D01*
X445996D01*
X445246Y293250D01*
Y294749D01*
X445996Y295499D01*
X448245D01*
X451994Y292500D02*
X450494D01*
X449744Y293250D01*
Y294749D01*
X450494Y295499D01*
X451994D01*
X452743Y294749D01*
Y294000D01*
X449744D01*
X460499Y251591D02*
X459749Y252341D01*
X458250D01*
X457500Y251591D01*
Y248592D01*
X458250Y247843D01*
X459749D01*
X460499Y248592D01*
X440000Y282500D02*
Y285499D01*
X441500Y286999D01*
X442999Y285499D01*
Y282500D01*
Y284749D01*
X440000D01*
X441708Y234499D02*
Y230000D01*
X443957D01*
X444707Y230750D01*
Y233749D01*
X443957Y234499D01*
X441708D01*
X427999Y249499D02*
X425000D01*
Y245000D01*
X427999D01*
X425000Y247249D02*
X426500D01*
X457500Y271999D02*
Y267500D01*
X459749D01*
X460499Y268250D01*
Y269000D01*
X459749Y269749D01*
X457500D01*
X459749D01*
X460499Y270499D01*
Y271249D01*
X459749Y271999D01*
X457500D01*
X427999Y269869D02*
X425000D01*
Y267619D01*
X426500D01*
X425000D01*
Y265370D01*
X455000Y229499D02*
Y225000D01*
X457249D01*
X457999Y225750D01*
Y228749D01*
X457249Y229499D01*
X455000D01*
X459499Y223500D02*
Y227999D01*
X461748D01*
X462498Y227249D01*
Y225750D01*
X461748Y225000D01*
X459499D01*
X444207Y269119D02*
X443457Y269869D01*
X441958D01*
X441208Y269119D01*
Y266120D01*
X441958Y265370D01*
X443457D01*
X444207Y266120D01*
Y267619D01*
X442707D01*
D16*
X16500Y111500D02*
Y120500D01*
X21000Y116000D01*
X16500Y111500D02*
X21000Y116000D01*
Y120500D01*
Y111500D02*
Y120500D01*
X432708Y182300D02*
X441708D01*
X437208D02*
X441708D01*
X432708Y186800D02*
X437208Y182300D01*
X441708Y186800D01*
X432708D02*
X441708D01*
X2185Y202716D02*
X59272D01*
X2185Y167283D02*
X59272D01*
X2185D02*
Y202716D01*
X415047Y173583D02*
Y196417D01*
X371346Y173583D02*
X415047D01*
X371346D02*
Y196417D01*
X415047D01*
X547744Y127894D02*
X594988D01*
X547744Y81500D02*
Y127894D01*
X594988Y81500D02*
Y127894D01*
X547744Y81500D02*
X594988D01*
X492626Y74016D02*
X539870D01*
X492626Y27622D02*
Y74016D01*
X539870Y27622D02*
Y74016D01*
X492626Y27622D02*
X539870D01*
X492626Y183394D02*
X539870D01*
X492626Y137000D02*
Y183394D01*
X539870Y137000D02*
Y183394D01*
X492626Y137000D02*
X539870D01*
X437508Y129134D02*
X484752D01*
X437508Y82740D02*
Y129134D01*
X484752Y82740D02*
Y129134D01*
X437508Y82740D02*
X484752D01*
X368854Y80394D02*
X416098D01*
X368854Y34000D02*
Y80394D01*
X416098Y34000D02*
Y80394D01*
X368854Y34000D02*
X416098D01*
X368604Y150644D02*
X415848D01*
X368604Y104250D02*
Y150644D01*
X415848Y104250D02*
Y150644D01*
X368604Y104250D02*
X415848D01*
X30500Y135000D02*
X62500D01*
Y154974D01*
X30500D02*
X62500D01*
X30500Y135000D02*
Y154974D01*
X551000Y228921D02*
Y266421D01*
Y228921D02*
X588000D01*
Y266421D01*
X551000D02*
X588000D01*
M02*
